<?xml version="1.0" encoding="UTF-8"?>
<svg version="1.1" xmlns="http://www.w3.org/2000/svg" width="512" height="512">
<path d="M0 0 C0.96574331 -0.00679667 0.96574331 -0.00679667 1.95099658 -0.01373065 C4.10035462 -0.02635324 6.24945857 -0.0247557 8.39884949 -0.02310181 C9.94324061 -0.02908844 11.48762873 -0.0358943 13.03201294 -0.04345703 C17.22221905 -0.06111142 21.41234346 -0.0658122 25.60258317 -0.0670886 C28.22236557 -0.06851118 30.84212727 -0.07278283 33.46190453 -0.07808304 C42.6069152 -0.0965821 51.7518676 -0.10475389 60.89689636 -0.10317993 C69.41239357 -0.10197886 77.92763718 -0.12307478 86.44307023 -0.15466726 C93.76129432 -0.18084749 101.07943567 -0.19154648 108.39770621 -0.19026911 C112.765328 -0.18975995 117.13272443 -0.19541748 121.50029945 -0.21662521 C125.61015651 -0.23603691 129.71957392 -0.23611227 133.82944679 -0.22159195 C135.33383834 -0.21950631 136.83825762 -0.22419021 138.34260178 -0.23631287 C147.56126119 -0.30576157 154.23302313 0.11953651 161.69645691 6.04867554 C162.23528503 6.61586304 162.77411316 7.18305054 163.32926941 7.76742554 C163.88356628 8.33461304 164.43786316 8.90180054 165.00895691 9.48617554 C167.40420452 12.43815637 168.45426941 14.43262048 168.45426941 18.26742554 C170.13104263 18.25410187 170.13104263 18.25410187 171.84169006 18.24050903 C182.40470976 18.15922835 192.96766554 18.09936677 203.53092766 18.06017685 C208.96091172 18.03935118 214.3906422 18.01112541 219.82048035 17.96566772 C225.06599018 17.92203078 230.31125694 17.89825071 235.55693436 17.88791656 C237.55270842 17.88055716 239.54847 17.86618627 241.54413986 17.84450531 C255.35597697 17.70049606 266.96118378 18.13539232 277.45426941 28.26742554 C286.71823922 39.21193409 286.89249001 51.28082889 286.83522034 64.95492554 C286.83868012 66.754845 286.84344684 68.55476235 286.84940207 70.35467529 C286.86189759 75.28391988 286.85574824 80.21298968 286.84644341 85.1422348 C286.83964736 90.46473867 286.85013693 95.78721277 286.85838318 101.10971069 C286.87171673 111.52986125 286.86884444 121.94994694 286.86014526 132.37010002 C286.85336765 140.83946133 286.85245233 149.30880448 286.85571671 157.77816772 C286.8561764 158.9839831 286.8566361 160.18979847 286.85710973 161.4321537 C286.85806892 163.88181305 286.85904156 166.3314724 286.86002751 168.78113174 C286.8685803 191.74675238 286.858749 214.71233707 286.84262641 237.67795181 C286.82922334 257.37966938 286.83155146 277.08133392 286.84538269 296.78305054 C286.86144045 319.66700107 286.86775633 342.55092011 286.8585459 365.43487549 C286.85759026 367.8754781 286.85664715 370.31608072 286.85571671 372.75668335 C286.85525388 373.95747843 286.85479105 375.15827351 286.8543142 376.39545631 C286.8517249 384.85376365 286.85609402 393.31205099 286.86315536 401.77035522 C286.87157272 412.07945317 286.86928521 422.3884826 286.85331313 432.69757271 C286.84543365 437.95651139 286.84233341 443.21533586 286.85226059 448.47427368 C286.86121454 453.29051188 286.85626298 458.10653024 286.84032793 462.92274857 C286.83698312 464.66285612 286.83866745 466.40298234 286.8459553 468.14307785 C286.89555057 480.97108926 286.11747342 492.1164104 277.45426941 502.26742554 C267.62022169 511.64619327 258.31472783 512.71215787 245.27838135 512.65510559 C243.72696228 512.65928144 242.17554628 512.66476034 240.62413591 512.6714254 C236.37253334 512.68586572 232.12112486 512.68163973 227.86951172 512.67425859 C223.27978013 512.66952575 218.69009045 512.68203777 214.10037231 512.692276 C205.11339793 512.7094668 196.12649345 512.71030346 187.13950688 512.7050631 C179.83475191 512.70102084 172.53001759 512.70246562 165.2252636 512.70781136 C164.18541019 512.70855978 163.14555679 512.7093082 162.07419268 512.7100793 C159.96170453 512.71161078 157.84921639 512.71314913 155.73672824 512.71469427 C135.92913269 512.72842022 116.12157665 512.72298085 96.313982 512.71150906 C78.19485775 512.70157564 60.0758356 512.71451908 41.95672709 512.73844325 C23.34850554 512.762828 4.74033154 512.77244371 -13.86790568 512.76579052 C-24.31363905 512.76229704 -34.75929389 512.76453896 -45.20501518 512.78204155 C-54.09677738 512.79675566 -62.98840572 512.79740924 -71.88016527 512.77997064 C-76.41599152 512.77145195 -80.95157858 512.76933231 -85.48739243 512.78462219 C-89.64190036 512.79845328 -93.79596384 512.79372662 -97.95044596 512.77438296 C-99.45102868 512.77061779 -100.95164686 512.77355986 -102.45219802 512.78399461 C-110.57289538 512.83643727 -117.40852424 512.51835699 -124.54573059 508.26742554 C-125.34366028 507.80980835 -126.14158997 507.35219116 -126.96369934 506.88070679 C-135.17232618 500.84655063 -139.54797725 493.187139 -141.54573059 483.26742554 C-141.9830773 477.3749412 -141.95574395 471.49932234 -141.93341064 465.59338379 C-141.93758722 463.79488921 -141.94306652 461.99639727 -141.94973046 460.19791019 C-141.96416123 455.27253205 -141.95994772 450.34732159 -141.95256364 445.42193437 C-141.94782843 440.10347827 -141.96034497 434.78505826 -141.97058105 429.46661377 C-141.98776744 419.05381739 -141.98860938 408.64108136 -141.98336815 398.22827448 C-141.97932491 389.76369689 -141.98077184 381.29913713 -141.98611641 372.83456039 C-141.98686483 371.62932247 -141.98761325 370.42408454 -141.98838435 369.18232425 C-141.98991585 366.73379636 -141.9914542 364.28526848 -141.99299932 361.8367406 C-142.0067238 338.88059954 -142.00128704 315.92449258 -141.98981411 292.9683523 C-141.97988187 271.973783 -141.99282237 250.97930183 -142.0167483 229.98474611 C-142.04113948 208.41920576 -142.05074711 186.85370645 -142.04409558 165.28815258 C-142.0406034 153.18406097 -142.0428354 141.08003714 -142.0603466 128.97595596 C-142.07506877 118.67202509 -142.07570374 108.36820973 -142.05827569 98.06428112 C-142.04976353 92.80911116 -142.04762161 87.55414754 -142.06292725 82.29898834 C-142.07677757 77.48382393 -142.07200657 72.66904258 -142.05268801 67.8539003 C-142.04892878 66.11644784 -142.05184772 64.37896467 -142.06229966 62.64153959 C-142.13328137 49.93384141 -141.14017453 38.35460535 -132.60432434 28.24008179 C-126.08404606 21.99199729 -117.86981305 18.06084588 -108.80329895 17.96102905 C-107.69872849 17.94504166 -106.59415802 17.92905426 -105.45611572 17.9125824 C-104.27783707 17.9072197 -103.09955841 17.90185699 -101.88557434 17.89633179 C-100.66294388 17.88730331 -99.44031342 17.87827484 -98.18063354 17.86897278 C-95.60110415 17.85449185 -93.02153821 17.84558892 -90.44197083 17.84188843 C-86.49351123 17.8299566 -82.5465967 17.78071575 -78.59846497 17.73031616 C-76.09000904 17.72085566 -73.58154354 17.71361884 -71.07307434 17.70883179 C-69.30262001 17.67953331 -69.30262001 17.67953331 -67.49639893 17.64964294 C-59.34896466 17.69460124 -59.34896466 17.69460124 -55.29792786 20.58358765 C-52.98102774 24.13238004 -52.87647931 26.10319536 -53.54573059 30.26742554 C-55.68252344 33.65682109 -56.72320729 34.9932511 -60.54573059 36.26742554 C-62.60718166 36.33641654 -64.6707446 36.35210281 -66.73323059 36.32992554 C-68.36325012 36.31639038 -68.36325012 36.31639038 -70.02619934 36.30258179 C-70.85764465 36.29098022 -71.68908997 36.27937866 -72.54573059 36.26742554 C-72.48688703 87.13998567 -72.41236886 138.01250198 -72.31674431 188.88500701 C-72.30547576 194.88707274 -72.29433737 200.88913871 -72.28327942 206.89120483 C-72.28107574 208.08613919 -72.27887205 209.28107355 -72.27660159 210.51221804 C-72.2412016 229.87608016 -72.21635273 249.23994224 -72.19538357 268.60382476 C-72.17364303 288.4638428 -72.14060927 308.32381874 -72.09702903 328.183801 C-72.0704822 340.4445489 -72.05280917 352.70524432 -72.04638455 364.96601955 C-72.04113994 373.36665858 -72.02495423 381.7672315 -72.00006493 390.16783514 C-71.98601813 395.01900016 -71.97689096 399.87004673 -71.98072243 404.72123337 C-71.98412161 409.1595277 -71.97383188 413.59756865 -71.95249508 418.03581104 C-71.94720754 419.64422522 -71.94701274 421.25266559 -71.95233496 422.86107966 C-71.95882062 425.04277039 -71.94698658 427.22361783 -71.93049145 429.40523815 C-71.92859285 430.61844461 -71.92669424 431.83165106 -71.92473811 433.08162135 C-71.47396826 436.87063453 -70.2633206 439.54983552 -67.54573059 442.26742554 C-64.97745021 442.49816417 -62.4310198 442.66487646 -59.85681152 442.79142761 C-58.63271182 442.85621017 -58.63271182 442.85621017 -57.38388282 442.92230147 C-54.62519996 443.06539027 -51.86618577 443.19987197 -49.10700989 443.33309937 C-48.14305109 443.38096148 -47.17909229 443.42882359 -46.18592262 443.47813606 C-26.94226464 444.42587746 -7.69164145 445.00560052 11.56947041 445.45828724 C23.81340404 445.75358787 36.03257424 446.15904195 48.26115417 446.84872437 C110.54898917 451.98569938 110.54898917 451.98569938 164.8893975 426.65634143 C179.23064971 413.54801369 191.47817506 398.25238954 202.45426941 382.26742554 C196.68849437 382.21796983 190.92284295 382.18167944 185.15690613 382.15756226 C183.19562123 382.14750771 181.2343513 382.13386221 179.27311707 382.11654663 C176.45325523 382.0922744 173.63359169 382.08093695 170.81364441 382.07211304 C169.49937469 382.05662918 169.49937469 382.05662918 168.15855408 382.04083252 C166.92773102 382.04060593 166.92773102 382.04060593 165.67204285 382.04037476 C164.9525647 382.03593353 164.23308655 382.03149231 163.49180603 382.0269165 C161.09120428 382.31028143 159.50518094 383.00099306 157.45426941 384.26742554 C156.3159676 386.54402916 156.30230057 387.912694 156.24333191 390.44320679 C156.21497253 391.27142944 156.18661316 392.0996521 156.15739441 392.95297241 C156.10566571 394.69234995 156.06129122 396.43196309 156.02458191 398.17172241 C155.84612515 402.97146561 155.61024429 406.40098238 152.45426941 410.26742554 C149.21799639 412.42494088 148.61848103 412.52106074 144.95426941 412.14242554 C144.18083191 412.07797241 143.40739441 412.01351929 142.61051941 411.94711304 C139.70320663 411.03067749 139.01866252 409.85856307 137.45426941 407.26742554 C136.82873327 403.20805506 136.99086454 399.11981451 137.01676941 395.01742554 C136.99678894 393.91012085 136.97680847 392.80281616 136.95622253 391.66195679 C136.96156926 382.66876204 138.90627143 375.81542351 145.45426941 369.26742554 C152.02323547 364.9086943 157.44234768 363.13668061 165.34611511 363.15390015 C166.50694107 363.15397568 167.66776703 363.15405121 168.86376953 363.15412903 C170.1066423 363.15929031 171.34951508 363.1644516 172.63005066 363.16976929 C173.91034653 363.17118423 175.1906424 363.17259918 176.50973511 363.17405701 C179.90123981 363.17786157 183.29270118 363.1876741 186.68418884 363.19876099 C190.14986078 363.20901956 193.61553977 363.21356413 197.08122253 363.21859741 C203.87225689 363.22961799 210.66325922 363.24634984 217.45426941 363.26742554 C217.45275053 362.67647291 217.45123165 362.08552029 217.44966674 361.47666001 C217.36020278 326.47134735 217.29154767 291.46605433 217.25000809 256.46065117 C217.24500512 252.25984921 217.23982784 248.05904747 217.23454285 243.85824585 C217.2334936 243.02192296 217.23244436 242.18560006 217.23136333 241.32393405 C217.21394627 227.77276089 217.18240144 214.22165544 217.14565822 200.67052248 C217.10828495 186.77135487 217.08604122 172.87222277 217.07791543 158.97300696 C217.07242014 150.39271055 217.05504841 141.81260549 217.02260354 133.23236796 C217.00150021 127.35285377 216.99505984 121.47343885 217.0002639 115.5938895 C217.00283225 112.19891589 216.99882684 108.80427722 216.97744751 105.40936279 C216.95765351 101.73207989 216.96229235 98.05562706 216.97325134 94.37832642 C216.96159998 93.30051226 216.94994861 92.2226981 216.93794417 91.11222291 C216.99626237 83.91185112 216.99626237 83.91185112 219.34566116 80.60619736 C222.94947075 78.31811055 226.34183259 78.50390326 230.45426941 79.26742554 C233.48642615 81.46573918 234.27081339 82.71705748 235.45426941 86.26742554 C235.54743749 87.88299431 235.58338135 89.50215386 235.58569717 91.1204052 C235.58953832 92.12651277 235.59337946 93.13262035 235.59733701 94.16921604 C235.59647053 95.27766002 235.59560404 96.38610401 235.5947113 97.52813721 C235.59916799 99.29078499 235.59916799 99.29078499 235.6037147 101.08904183 C235.61090223 104.35627238 235.61357458 107.62347094 235.61431217 110.89070821 C235.61616173 114.41226241 235.62370852 117.93380518 235.63044739 121.45535278 C235.64403464 129.15774297 235.65005589 136.86012796 235.65445805 144.56252813 C235.6572195 149.37028076 235.66145665 154.17803136 235.66596222 158.98578262 C235.67815483 172.29264385 235.68845453 185.59950347 235.69183731 198.90637016 C235.69205688 199.75817903 235.69227644 200.6099879 235.69250266 201.48760916 C235.69272094 202.34147258 235.69293922 203.195336 235.69316411 204.07507408 C235.69360758 205.80536962 235.69405414 207.53566516 235.69450378 209.26596069 C235.69472521 210.12424969 235.69494664 210.98253869 235.69517478 211.86683644 C235.69912418 225.77925701 235.71658253 239.69162524 235.73986331 253.60402559 C235.76356311 267.88185348 235.77603852 282.15965509 235.77720523 296.43750298 C235.7781227 304.45637939 235.78389324 312.4751876 235.80202484 320.49404526 C235.81740727 327.32117463 235.82255728 334.14821471 235.81428674 340.97535811 C235.81037375 344.45952414 235.81134119 347.94351026 235.82534409 351.42765427 C235.83797277 355.20284162 235.83223592 358.97756309 235.82176208 362.75274658 C235.83384669 364.4087204 235.83384669 364.4087204 235.84617543 366.09814823 C235.78766329 375.07782661 235.78766329 375.07782661 232.45426941 379.26742554 C231.7827564 380.5005139 231.12001895 381.73843582 230.46760559 382.98173523 C223.24056918 396.44146894 214.69138316 408.71425785 205.07926941 420.57992554 C204.29735859 421.5463221 203.51544777 422.51271866 202.70984268 423.50839996 C181.69393386 448.79355796 157.86364754 462.01433276 125.03874207 465.19369507 C95.23661685 467.81435732 65.26645938 467.40008153 35.39176941 466.64242554 C34.11492059 466.61170094 32.83807177 466.58097634 31.52253056 466.5493207 C5.15954402 465.9096456 -21.19360156 464.91381545 -47.51137662 463.21731317 C-49.49959949 463.08953992 -51.48813102 462.96646589 -53.47696185 462.84853327 C-56.19461654 462.68376089 -58.90962651 462.49585363 -61.62521362 462.30023193 C-62.40295519 462.25593648 -63.18069676 462.21164103 -63.98200625 462.16600329 C-72.39982979 461.49776879 -79.37137866 458.33234997 -85.10823059 452.13070679 C-89.87331507 445.954225 -90.67114293 438.96645501 -90.66877842 431.37400341 C-90.66993226 430.68950797 -90.67108611 430.00501252 -90.67227492 429.2997748 C-90.67492615 427.00138487 -90.67043171 424.7030647 -90.66598511 422.40467834 C-90.66642111 420.74219315 -90.66729657 419.07970803 -90.66857427 417.41722327 C-90.67081344 412.84507859 -90.66680582 408.27295727 -90.66179621 403.70081556 C-90.65748364 398.77175037 -90.65893871 393.84268654 -90.65969849 388.91362 C-90.66022321 380.3724149 -90.6570818 371.83121744 -90.65146065 363.29001427 C-90.64333866 350.94081969 -90.64072971 338.59162881 -90.63947266 326.24243186 C-90.63728324 306.20738534 -90.63062613 286.17234289 -90.62117004 266.13729858 C-90.61199308 246.6734316 -90.60491363 227.20956573 -90.60066223 207.74569702 C-90.60039951 206.54623842 -90.60013678 205.34677981 -90.5998661 204.11097398 C-90.59856108 198.09373051 -90.59729736 192.07648704 -90.5960542 186.05924356 C-90.58568502 136.12863474 -90.56806969 86.19803034 -90.54573059 36.26742554 C-93.90112333 36.31973377 -97.25402616 36.414905 -100.60823059 36.51742554 C-101.55117981 36.53160522 -102.49412903 36.54578491 -103.46565247 36.56039429 C-109.64853209 36.77582563 -113.49242851 37.63389275 -118.54573059 41.26742554 C-122.45876029 46.48479846 -122.6710303 51.05990669 -122.67715836 57.45553303 C-122.67921099 58.18405191 -122.68126362 58.9125708 -122.68337846 59.66316602 C-122.68905696 62.11739506 -122.68759016 64.57156814 -122.68617249 67.02580261 C-122.68875563 68.7979308 -122.69176864 70.5700584 -122.69517589 72.3421852 C-122.70325501 77.22231316 -122.70503596 82.10242642 -122.70577335 86.98256028 C-122.7076223 92.24170905 -122.71516879 97.50085016 -122.72190857 102.75999451 C-122.73549844 114.26399195 -122.7415175 125.76798592 -122.74591923 137.27199006 C-122.74868029 144.45220339 -122.75291737 151.63241537 -122.7574234 158.81262779 C-122.76961644 178.68454434 -122.779916 198.5564598 -122.78329849 218.42838001 C-122.78351806 219.70055143 -122.78373762 220.97272285 -122.78396384 222.28344492 C-122.78418212 223.55869194 -122.7844004 224.83393896 -122.78462529 226.14782983 C-122.78506876 228.73204728 -122.78551532 231.31626473 -122.78596497 233.90048218 C-122.7861864 235.18234835 -122.78640783 236.46421452 -122.78663597 237.78492513 C-122.79058536 258.56337409 -122.80804357 279.34178802 -122.83132449 300.12022344 C-122.85502246 321.44258926 -122.86749962 342.76493748 -122.86866641 364.08731669 C-122.869584 376.06334032 -122.87535737 388.03931829 -122.89348602 400.01532936 C-122.90886596 410.21156267 -122.9140199 420.40773621 -122.90574792 430.60397891 C-122.90183408 435.80782869 -122.90280683 441.01155801 -122.91680527 446.21539307 C-122.92949998 450.97804217 -122.92838575 455.74047975 -122.91621456 460.50312837 C-122.91424987 462.22721547 -122.91737143 463.95131733 -122.92605892 465.67538366 C-122.93711601 468.01777805 -122.92968843 470.35942124 -122.91766739 472.70179462 C-122.91826448 474.00320623 -122.91886157 475.30461783 -122.91947675 476.64546615 C-122.23161666 483.31149133 -119.7153175 487.87327667 -114.54573059 492.26742554 C-111.27685996 493.35704908 -108.89019247 493.39611641 -105.44894791 493.40164661 C-103.52362917 493.40833338 -103.52362917 493.40833338 -101.5594151 493.41515523 C-100.12673266 493.41506593 -98.69405022 493.41487607 -97.2613678 493.41459656 C-95.74583999 493.41789507 -94.23031305 493.42162061 -92.71478724 493.42573804 C-88.5392991 493.43576748 -84.36382532 493.43947634 -80.18832684 493.44212735 C-75.68921992 493.44602756 -71.19012442 493.45560604 -66.69102478 493.46434021 C-55.82081167 493.48411186 -44.95059762 493.49417138 -34.08037102 493.503068 C-28.96381006 493.50744945 -23.84725014 493.5128166 -18.73069 493.51805687 C-1.72656087 493.53506928 15.27756761 493.54956431 32.28170395 493.55680561 C36.69534557 493.55871556 41.10898718 493.56063589 45.52262878 493.56259155 C47.16814912 493.56331716 47.16814912 493.56331716 48.84691229 493.56405743 C66.62497256 493.57236094 84.40296561 493.59770321 102.18099651 493.63017223 C120.42517685 493.66322152 138.66932301 493.68125241 156.91353345 493.68444985 C167.16031642 493.68661684 177.40700135 493.69539321 187.65375519 493.72091103 C196.37879696 493.74258887 205.10371688 493.7506828 213.82878253 493.74094424 C218.28130172 493.73639117 222.73356934 493.73834413 227.18605423 493.75770569 C231.26230965 493.77527834 235.33812889 493.77438793 239.41438857 493.7588084 C240.88884696 493.75642333 242.36333508 493.76080237 243.8377479 493.77263705 C254.38256013 493.95919955 254.38256013 493.95919955 263.45426941 489.26742554 C267.3672991 484.05005261 267.57956912 479.47494439 267.58569717 473.07931805 C267.58774981 472.35079916 267.58980244 471.62228027 267.59191728 470.87168506 C267.59759578 468.41745601 267.59612898 465.96328294 267.5947113 463.50904846 C267.59729445 461.73692027 267.60030746 459.96479267 267.6037147 458.19266587 C267.61179382 453.31253791 267.61357478 448.43242465 267.61431217 443.5522908 C267.61616112 438.29314203 267.62370761 433.03400092 267.63044739 427.77485657 C267.64403726 416.27085912 267.65005632 404.76686515 267.65445805 393.26286101 C267.65721911 386.08264768 267.66145619 378.9024357 267.66596222 371.72222328 C267.67815526 351.85030673 267.68845482 331.97839127 267.69183731 312.10647106 C267.69205688 310.83429964 267.69227644 309.56212822 267.69250266 308.25140615 C267.69272094 306.97615913 267.69293922 305.70091211 267.69316411 304.38702124 C267.69360758 301.80280379 267.69405414 299.21858634 267.69450378 296.6343689 C267.69472521 295.35250272 267.69494664 294.07063655 267.69517478 292.74992595 C267.69912418 271.97147698 267.71658238 251.19306306 267.73986331 230.41462763 C267.76356127 209.09226181 267.77603844 187.76991359 267.77720523 166.44753438 C267.77812281 154.47151075 267.78389619 142.49553279 267.80202484 130.51952171 C267.81740478 120.3232884 267.82255872 110.12711487 267.81428674 99.93087216 C267.8103729 94.72702238 267.81134565 89.52329306 267.82534409 84.31945801 C267.83803879 79.55680891 267.83692457 74.79437133 267.82475337 70.0317227 C267.82278869 68.3076356 267.82591025 66.58353374 267.83459774 64.85946741 C267.84565483 62.51707303 267.83822725 60.17542983 267.82620621 57.83305645 C267.8268033 56.53164485 267.82740038 55.23023324 267.82801557 53.88938493 C267.21139026 47.91369319 265.20745366 43.15639447 260.45426941 39.26742554 C257.61484513 37.61198204 255.56364652 37.01665709 252.28643799 37.00914001 C251.46357803 37.00231201 250.64071808 36.99548401 249.79292297 36.9884491 C248.89878693 36.99100204 248.00465088 36.99355499 247.0834198 36.9961853 C246.13501724 36.99095856 245.18661469 36.98573181 244.20947266 36.98034668 C242.15132362 36.97010977 240.09314871 36.96432681 238.03497505 36.96246529 C234.77767958 36.95880454 231.52068936 36.94208609 228.26345825 36.92170715 C219.00298228 36.86626382 209.74246142 36.83559202 200.4818573 36.81112671 C194.81670785 36.79525751 189.15177534 36.76504579 183.4867382 36.72636223 C181.32780191 36.71470733 179.16882683 36.70878184 177.00985909 36.70868111 C173.99117994 36.70848919 170.97309975 36.69023238 167.95451355 36.6680603 C167.06240173 36.67263748 166.17028992 36.67721466 165.25114441 36.68193054 C160.53082998 36.62677505 157.2435 36.41439675 153.45426941 33.26742554 C152.41520691 30.67367554 152.41520691 30.67367554 151.82926941 27.76742554 C150.83475581 22.79670964 150.83475581 22.79670964 147.45426941 19.26742554 C144.65587235 18.81356843 144.65587235 18.81356843 141.41911316 18.88647461 C140.15720154 18.87801514 138.89528992 18.86955566 137.59513855 18.86083984 C136.19401422 18.86667294 134.79289115 18.87281746 133.39176941 18.87924194 C131.91837677 18.87517752 130.44498719 18.86983637 128.97160339 18.86331177 C124.96749929 18.84961686 120.96362667 18.85494569 116.95951843 18.86444902 C112.77286649 18.8720344 108.58623461 18.86500314 104.39958191 18.86029053 C97.36829564 18.85482969 90.33710384 18.86203315 83.30583191 18.87631226 C75.17202687 18.89263943 67.0384474 18.88735115 58.90464783 18.87083304 C51.9262346 18.85722748 44.94788936 18.85529394 37.96946716 18.86314905 C33.79932456 18.8678307 29.62928805 18.86843696 25.45915222 18.85853958 C21.53897012 18.84988566 17.61907939 18.85586272 13.69892883 18.87322235 C12.25856511 18.87719566 10.81817694 18.87603873 9.37782288 18.86943436 C7.41503259 18.86126295 5.45218885 18.87331684 3.48942566 18.88647461 C2.38993591 18.88760569 1.29044617 18.88873676 0.15763855 18.88990211 C-2.56814483 19.04291412 -2.56814483 19.04291412 -4.38061523 20.68341637 C-7.20060022 24.51727029 -6.70624217 29.09323354 -6.71369934 33.66586304 C-6.71702774 34.37844269 -6.72035614 35.09102234 -6.7237854 35.82519531 C-6.7288371 37.3296952 -6.73119427 38.83420624 -6.73103333 40.3387146 C-6.73321649 42.62764167 -6.75138119 44.91608385 -6.77033997 47.20492554 C-6.77327502 48.67106973 -6.77525907 50.1372162 -6.77619934 51.60336304 C-6.78697762 52.62084122 -6.78697762 52.62084122 -6.79797363 53.65887451 C-6.77785218 57.89241562 -6.34498661 61.41436552 -4.54573059 65.26742554 C-1.25358453 67.49628599 1.61287433 67.51776953 5.52029419 67.51898193 C6.76386185 67.52436478 8.0074295 67.52974762 9.28868103 67.53529358 C10.66410873 67.53127951 12.03953597 67.5271086 13.41496277 67.52279663 C14.86555173 67.52554707 16.31613917 67.52922729 17.76672363 67.5337677 C20.88895642 67.54187639 24.01111761 67.54404901 27.13335991 67.54182053 C32.07083869 67.53898739 37.00817438 67.55333912 41.94561768 67.57080078 C55.98518225 67.61782857 70.02473699 67.64177122 84.06437683 67.64828491 C91.81953866 67.6520348 99.57453851 67.67005745 107.32963091 67.70337927 C112.23738983 67.72360336 117.14473128 67.7259589 122.05251491 67.7150991 C125.10660898 67.71249234 128.16045985 67.72649393 131.21449089 67.74518013 C132.62982293 67.75050337 134.04519973 67.74900298 135.46051407 67.74014473 C137.39407797 67.72901964 139.32774069 67.74480267 141.26126099 67.76190186 C142.88365897 67.76353616 142.88365897 67.76353616 144.53883266 67.76520348 C148.16368948 68.38963241 149.84998053 69.71779024 152.45426941 72.26742554 C153.32339795 75.33366783 153.08908991 78.15623316 152.45426941 81.26742554 C150.57806328 83.76903371 149.21535638 84.88688205 146.45426941 86.26742554 C144.73104894 86.36057386 143.00419303 86.38934261 141.27845764 86.38768005 C140.18186829 86.38905472 139.08527893 86.39042938 137.95545959 86.3918457 C136.74705414 86.38825043 135.53864868 86.38465515 134.29362488 86.38095093 C133.02536865 86.38109695 131.75711243 86.38124298 130.45042419 86.38139343 C126.96716856 86.38168102 123.48394718 86.37579053 120.00069952 86.36881948 C116.36251339 86.36257951 112.72432652 86.36198163 109.08613586 86.36079407 C102.19424764 86.35768265 95.30237522 86.34947182 88.41049397 86.33944458 C80.56537534 86.32827756 72.72025596 86.3227715 64.87513137 86.31774914 C48.73483478 86.30728905 32.59455411 86.28969327 16.45426941 86.26742554 C16.51432795 89.18627082 16.60135557 92.10004192 16.70426941 95.01742554 C16.7184491 95.84242554 16.73262878 96.66742554 16.74723816 97.51742554 C16.89312396 101.13539352 17.09425257 103.63516702 18.9039917 106.81341553 C22.84916828 109.06271026 26.54062808 108.82158758 31.00871277 108.78158569 C32.46057732 108.79227333 32.46057732 108.79227333 33.94177246 108.80317688 C37.14275935 108.82248283 40.34308722 108.81417316 43.54411316 108.80648804 C45.76845264 108.81639159 47.99278391 108.82833153 50.21710205 108.84222412 C56.07599873 108.87462922 61.93470844 108.88498194 67.79368591 108.8890686 C77.16836315 108.89781497 86.5428864 108.93329876 95.9174366 108.98124313 C99.19295084 108.99383936 102.46827134 108.99306907 105.74380493 108.9909668 C107.75268198 108.99754752 109.76155769 109.00455386 111.77043152 109.01205444 C112.68124481 109.00793045 113.59205811 109.00380646 114.5304718 108.9995575 C119.84524629 109.03351396 124.18765769 109.15713187 128.26676941 112.95492554 C129.9898897 116.31047557 129.9763503 118.54759919 129.45426941 122.26742554 C127.43604755 125.12888879 125.83134449 126.97042809 122.31414223 127.72899246 C119.60557514 127.92017157 116.93833308 127.94282229 114.22306824 127.91439819 C113.19476898 127.92315979 112.16646973 127.93192139 111.10700989 127.94094849 C107.70801052 127.96295074 104.31031328 127.94838033 100.91130066 127.93148804 C98.54343415 127.9348572 96.17556933 127.93971065 93.80770874 127.94598389 C88.84199071 127.95335747 83.87672228 127.94263819 78.91105652 127.91928101 C72.56357939 127.89087158 66.21716296 127.90714555 59.86972523 127.93714333 C54.97701122 127.95526921 50.08454573 127.94943254 45.19182396 127.93650436 C42.85278382 127.93318095 40.51372074 127.93721972 38.17470741 127.94890213 C34.8933516 127.96168856 31.61367495 127.94211964 28.33244324 127.91439819 C26.89736168 127.92957993 26.89736168 127.92957993 25.43328857 127.94506836 C17.83118539 127.82687383 11.27149917 125.69822221 5.53387165 120.54143715 C-0.39215037 114.34429203 -1.89672802 107.42449338 -1.80940247 99.09945679 C-1.78426575 98.16488647 -1.75912903 97.23031616 -1.73323059 96.26742554 C-1.71969543 95.30191772 -1.70616028 94.33640991 -1.69221497 93.34164429 C-1.65718517 90.98297128 -1.60807143 88.62550783 -1.54573059 86.26742554 C-2.7690509 85.99156616 -3.99237122 85.71570679 -5.25276184 85.43148804 C-12.88611403 83.51180334 -18.44974959 79.3802549 -22.57307434 72.68539429 C-25.18491485 66.19250562 -25.84959427 59.55006931 -25.81135559 52.61117554 C-25.81326904 51.82400146 -25.8151825 51.03682739 -25.81715393 50.22579956 C-25.81850393 48.57544634 -25.81489119 46.92508206 -25.80647278 45.27474976 C-25.79575603 42.77336381 -25.80640853 40.27269586 -25.81916809 37.77133179 C-25.81784629 36.15544481 -25.81528346 34.53955828 -25.81135559 32.92367554 C-25.81540405 32.18903076 -25.81945251 31.45438599 -25.82362366 30.69747925 C-25.7435095 21.66172829 -24.29692898 13.98874217 -17.68244934 7.41586304 C-11.99900175 2.21406355 -7.85497503 0.02289049 0 0 Z " fill="currentColor" transform="translate(183.5457305908203,-0.267425537109375)"/>
<path d="M0 0 C1.0094165 -0.00563965 2.01883301 -0.0112793 3.05883789 -0.01708984 C4.7109729 -0.01101715 4.7109729 -0.01101715 6.39648438 -0.00482178 C8.14336548 -0.01007874 8.14336548 -0.01007874 9.92553711 -0.01544189 C13.78049658 -0.02425446 17.63527299 -0.01841159 21.49023438 -0.01165771 C24.16536691 -0.0130045 26.84049386 -0.01494198 29.515625 -0.01745605 C35.12436919 -0.02109366 40.73306069 -0.01630201 46.34179688 -0.0067749 C52.82428459 0.00410928 59.3066465 0.00058356 65.78913116 -0.01042771 C71.35696743 -0.01950646 76.92476584 -0.020783 82.49260712 -0.01555037 C85.81711744 -0.01243389 89.14155573 -0.01279883 92.46606445 -0.01862335 C96.17212482 -0.0236911 99.87794215 -0.01597452 103.58398438 -0.00482178 C104.68540771 -0.00887024 105.78683105 -0.0129187 106.92163086 -0.01708984 C108.43575562 -0.00863037 108.43575562 -0.00863037 109.98046875 0 C110.85650757 0.00075405 111.73254639 0.0015081 112.63513184 0.002285 C115.23465307 0.28008753 116.79993374 0.83764734 118.99023438 2.25396729 C121.01404938 5.28968979 121.32797691 6.21169215 121.42773438 9.69146729 C121.46769531 10.45330322 121.50765625 11.21513916 121.54882812 12.00006104 C120.99023438 14.25396729 120.99023438 14.25396729 119.19252014 16.36248779 C114.32486179 19.23764529 109.75107801 18.81150222 104.19506836 18.77154541 C103.00107422 18.77855469 101.80708008 18.78556396 100.5769043 18.79278564 C97.31028703 18.807357 94.04431988 18.80396689 90.77771258 18.7912693 C87.35627573 18.78112589 83.93488159 18.79053847 80.51344299 18.79681396 C74.76938098 18.80408553 69.02552488 18.79451472 63.28149414 18.77545166 C56.64265059 18.75367324 50.00429823 18.76074286 43.36546654 18.78275728 C37.66169833 18.80091311 31.95807793 18.80346911 26.25429016 18.79300261 C22.8492538 18.7867699 19.4444483 18.7859258 16.0394268 18.79914856 C12.24461295 18.809283 8.45074879 18.79385498 4.65600586 18.77154541 C3.52810135 18.77964233 2.40019684 18.78773926 1.2381134 18.79608154 C0.2048996 18.78480225 -0.82831421 18.77352295 -1.89283752 18.76190186 C-2.78970056 18.76039375 -3.68656359 18.75888565 -4.61060429 18.75733185 C-7.81102461 18.0858563 -8.99601688 16.78228944 -11.00976562 14.25396729 C-12.07411667 10.3513468 -12.40716148 8.19516799 -10.82226562 4.44146729 C-7.6983283 0.6711981 -4.7879024 0.00412119 0 0 Z " fill="currentColor" transform="translate(246.009765625,187.74603271484375)"/>
<path d="M0 0 C1.54982071 -0.01691895 1.54982071 -0.01691895 3.13095093 -0.03417969 C4.25885544 -0.02608276 5.38675995 -0.01798584 6.54884338 -0.00964355 C7.74108521 -0.01665283 8.93332703 -0.02366211 10.16169739 -0.03088379 C13.42844035 -0.04547197 16.69453497 -0.04205319 19.96126819 -0.02936745 C23.38224309 -0.01923292 26.80317499 -0.02863458 30.22415161 -0.03491211 C35.96999373 -0.04218823 41.71563016 -0.03260297 47.46144104 -0.0135498 C54.09967597 0.00820878 60.73741927 0.00117524 67.37564224 -0.02085543 C73.07855665 -0.03902299 78.78132327 -0.04156089 84.48425728 -0.03110075 C87.8887815 -0.02487184 91.29307486 -0.02401308 94.69758415 -0.0372467 C98.49469701 -0.04739406 102.29086358 -0.03193388 106.08790588 -0.00964355 C107.7767263 -0.02178894 107.7767263 -0.02178894 109.49966431 -0.03417969 C117.10746244 0.0486464 117.10746244 0.0486464 121.08096313 2.40161133 C123.71825836 5.48410909 123.5309515 7.48114646 123.3127594 11.38293457 C122.69159819 14.45485912 121.43388607 15.75880485 118.8830719 17.50793457 C115.96066715 18.48206949 114.08107167 18.63795209 111.03825378 18.64837646 C109.54098 18.65694168 109.54098 18.65694168 108.01345825 18.66567993 C106.372313 18.66735672 106.372313 18.66735672 104.69801331 18.66906738 C102.96839104 18.67651474 102.96839104 18.67651474 101.2038269 18.68411255 C97.38075672 18.6987447 93.55772801 18.70553759 89.7346344 18.71105957 C87.75283502 18.71535696 85.77103563 18.71965487 83.78923643 18.72403407 C78.2672665 18.73584396 72.74530664 18.74338212 67.22332537 18.74682927 C60.08453818 18.75131041 52.94594241 18.76886244 45.80721343 18.79782987 C40.28694664 18.81945157 34.76673371 18.82953379 29.24642503 18.83087039 C25.95031165 18.831918 22.65441929 18.83926278 19.35834122 18.85569 C15.68105234 18.87271035 12.00423164 18.87087987 8.32691956 18.86437988 C6.691847 18.87820206 6.691847 18.87820206 5.02374268 18.89230347 C-4.18804198 18.84119697 -4.18804198 18.84119697 -8.1169281 15.50793457 C-10.21794405 12.83391427 -10.11539786 11.46508772 -9.9919281 8.00793457 C-8.55672701 2.2671302 -5.89236261 0.00990819 0 0 Z " fill="currentColor" transform="translate(244.11692810058594,273.4920654296875)"/>
<path d="M0 0 C2.3127841 3.18007813 3.07175056 4.99153405 2.79199219 8.92358398 C1.88944648 12.4294343 0.81117411 13.87132559 -1.671875 16.47265625 C-2.89293945 17.76260498 -2.89293945 17.76260498 -4.13867188 19.07861328 C-5.09112956 20.05369836 -6.04499469 21.02740994 -7 22 C-7.52762939 22.543078 -8.05525879 23.08615601 -8.59887695 23.64569092 C-12.16035261 27.30950931 -15.75396305 30.93973822 -19.3671875 34.55249023 C-21.26591448 36.45343306 -23.15645377 38.36228574 -25.046875 40.27148438 C-26.26513619 41.49267533 -27.48386915 42.71339587 -28.703125 43.93359375 C-29.2615509 44.49920517 -29.81997681 45.06481659 -30.39532471 45.64756775 C-37.7034248 52.91333678 -37.7034248 52.91333678 -43.3125 53.125 C-48.42549663 51.56510272 -51.25721432 48.7153157 -55 45 C-55.81597656 44.20980469 -56.63195312 43.41960937 -57.47265625 42.60546875 C-64.86704575 35.35170156 -64.86704575 35.35170156 -65.375 30.1875 C-65.31879192 26.75880687 -64.99773575 25.99670655 -62.9375 23 C-60 21 -60 21 -56.6875 20.25 C-52.11427595 21.18014726 -50.0840137 23.07833868 -46.796875 26.2734375 C-44.91225871 28.1859757 -44.91225871 28.1859757 -42 30 C-41.08186523 29.06615479 -40.16373047 28.13230957 -39.21777344 27.17016602 C-35.81117787 23.70929276 -32.39468172 20.25833907 -28.97509766 16.81030273 C-27.49613628 15.31624991 -26.01987797 13.8195163 -24.54638672 12.32006836 C-22.42859617 10.16591171 -20.30128904 8.02156588 -18.171875 5.87890625 C-17.18571198 4.86951744 -17.18571198 4.86951744 -16.17962646 3.83973694 C-15.55928528 3.21916916 -14.93894409 2.59860138 -14.29980469 1.95922852 C-13.75797546 1.41073746 -13.21614624 0.8622464 -12.65789795 0.2971344 C-8.47081215 -2.97882901 -4.68672293 -1.95990232 0 0 Z " fill="currentColor" transform="translate(210,338)"/>
<path d="M0 0 C2.47887524 2.15902037 2.9381573 3.79238523 3.875 6.9375 C4.05526967 11.35410695 2.06620031 13.74961508 -0.74282837 17.04389954 C-1.70471573 18.03984383 -1.70471573 18.03984383 -2.68603516 19.0559082 C-3.41754791 19.81631912 -4.14906067 20.57673004 -4.90274048 21.36018372 C-8.2508193 24.78441265 -11.60014635 28.20704074 -14.96728516 31.61254883 C-16.73831097 33.41171974 -18.49944093 35.22068586 -20.25048828 37.03930664 C-22.78334667 39.66954603 -25.34457982 42.26886754 -27.9140625 44.86328125 C-28.68940338 45.67879959 -29.46474426 46.49431793 -30.26358032 47.33454895 C-33.97201088 51.0144378 -36.50619474 53.49046893 -41.89379883 53.61181641 C-45.98155254 53.30424069 -48.13821483 51.99681702 -51.0625 49.0625 C-51.88621094 48.23878906 -52.70992187 47.41507812 -53.55859375 46.56640625 C-54.36425781 45.71949219 -55.16992188 44.87257813 -56 44 C-56.79535156 43.24589844 -57.59070313 42.49179687 -58.41015625 41.71484375 C-62.00431527 38.12068473 -64.49672489 35.40205649 -64.8125 30.1875 C-64.48340166 26.9969195 -64.04219306 26.05405986 -62 23.4375 C-58.17196718 21.60323427 -55.07643534 20.71819584 -51 22 C-47.97140059 24.37334877 -45.46952055 27.05759253 -43 30 C-40.19980675 28.72466236 -38.17250511 27.41476602 -36.02319336 25.21850586 C-35.19729958 24.38270241 -35.19729958 24.38270241 -34.35472107 23.53001404 C-33.4811068 22.63150475 -33.4811068 22.63150475 -32.58984375 21.71484375 C-31.9811293 21.09855606 -31.37241486 20.48226837 -30.74525452 19.8473053 C-28.8044534 17.882109 -26.87023612 15.91062668 -24.9375 13.9375 C-22.38983334 11.3367372 -19.83570374 8.74258336 -17.27734375 6.15234375 C-16.69291 5.55131332 -16.10847626 4.9502829 -15.5063324 4.33103943 C-10.43327625 -0.80323738 -6.87156194 -1.83624202 0 0 Z " fill="currentColor" transform="translate(209,252)"/>
<path d="M0 0 C3.43250143 1.9401095 4.70166193 3.14227804 6 6.875 C6 13.6872526 1.60545928 17.74153906 -2.92982483 22.29536438 C-3.7173967 23.07058945 -4.50496857 23.84581451 -5.31640625 24.64453125 C-6.12867172 25.45492355 -6.94093719 26.26531586 -7.77781677 27.1002655 C-9.48989432 28.80563858 -11.20555706 30.507419 -12.92456055 32.20581055 C-15.56368236 34.81366835 -18.19188222 37.43214783 -20.81835938 40.05273438 C-22.48375149 41.70896053 -24.14974632 43.3645809 -25.81640625 45.01953125 C-26.60600235 45.80487747 -27.39559845 46.59022369 -28.2091217 47.39936829 C-28.94005539 48.12069443 -29.67098907 48.84202057 -30.42407227 49.58520508 C-31.06788345 50.22218826 -31.71169464 50.85917145 -32.37501526 51.51545715 C-34.68596832 53.62668242 -35.97818694 53.99650991 -39.125 54.5 C-44.76594235 53.77213647 -47.07210059 50.90758269 -51 47 C-51.97453125 46.14277344 -52.9490625 45.28554687 -53.953125 44.40234375 C-62.70951827 36.55548823 -62.70951827 36.55548823 -63.0625 31.125 C-62.62285436 27.9911157 -61.6789405 26.10419219 -59.4375 23.875 C-56 22 -56 22 -52.625 21.75 C-48.33455525 23.22946371 -45.97923919 25.34063624 -42.796875 28.50390625 C-41.00544808 30.31992785 -41.00544808 30.31992785 -38 30 C-35.70413807 27.95506225 -33.57038587 25.89315137 -31.43359375 23.69140625 C-30.79889664 23.05009262 -30.16419952 22.40877899 -29.51026917 21.74803162 C-27.47882607 19.69313216 -25.45778388 17.62836682 -23.4375 15.5625 C-21.41196982 13.50194347 -19.38433941 11.44351692 -17.35401917 9.38768005 C-16.08987791 8.10652381 -14.82883163 6.82230508 -13.57115173 5.5348053 C-8.84332232 0.7261426 -6.84991604 -0.58050136 0 0 Z " fill="currentColor" transform="translate(207,166)"/>
<path d="M0 0 C1.04796249 -0.00630432 2.09592499 -0.01260864 3.17564392 -0.019104 C4.87256126 -0.01303131 4.87256126 -0.01303131 6.60375977 -0.00683594 C8.34774803 -0.00970612 8.34774803 -0.00970612 10.12696838 -0.01263428 C12.58741472 -0.01399615 15.04786823 -0.01029956 17.50830078 -0.00195312 C21.27661283 0.00873643 25.04444707 -0.00184366 28.81274414 -0.01464844 C31.20141707 -0.01332665 33.5900897 -0.01076387 35.97875977 -0.00683594 C37.10801376 -0.0108844 38.23726776 -0.01493286 39.40074158 -0.019104 C40.45185623 -0.01279968 41.50297089 -0.00649536 42.5859375 0 C43.50954575 0.00159119 44.43315399 0.00318237 45.38475037 0.00482178 C48.04847035 0.27838458 49.62189965 0.80026173 51.85766602 2.25878906 C54.30287716 5.92660578 54.58004361 8.99332139 53.85766602 13.25878906 C51.98751507 15.68998529 50.57628257 16.89948079 47.85766602 18.25878906 C46.18931038 18.3694422 44.51665239 18.41794017 42.84472656 18.43579102 C41.27751106 18.45504387 41.27751106 18.45504387 39.67863464 18.47468567 C38.54533218 18.4820726 37.41202972 18.48945953 36.24438477 18.49707031 C34.50183159 18.50917793 34.50183159 18.50917793 32.72407532 18.52153015 C30.26186622 18.53537932 27.79963785 18.54609773 25.33740234 18.55395508 C21.57100061 18.57117097 17.8054757 18.61505163 14.03930664 18.65917969 C11.64933915 18.66930603 9.25936418 18.67782232 6.86938477 18.68457031 C5.742155 18.7020784 4.61492523 18.71958649 3.45353699 18.73762512 C-4.33775565 18.71600445 -4.33775565 18.71600445 -8.33056641 16.44702148 C-10.86994805 13.37998501 -11.14233398 11.20778089 -11.14233398 7.25878906 C-8.71089901 1.78806036 -5.88705281 0.01015092 0 0 Z " fill="currentColor" transform="translate(245.142333984375,358.7412109375)"/>
</svg>
