<?xml version="1.0" encoding="UTF-8"?>
<svg version="1.1" xmlns="http://www.w3.org/2000/svg" width="512" height="512">
<path d="M0 0 C2.7740113 2.02427852 3.80789165 3.32561964 4.75 6.6328125 C5.07008459 10.94395183 4.03742816 14.13133933 2.6875 18.1875 C-6.7103242 48.23088723 -4.17003783 80.80116379 9.96826172 109.03515625 C15.96026946 120.44634374 23.29450557 130.52524244 32 140 C32.78890625 140.87140625 33.5778125 141.7428125 34.390625 142.640625 C56.42008355 165.83720718 88.02009486 179.79081817 119.88671875 181.16796875 C148.19563305 181.31344107 175.34090165 172.64896807 197 154 C197.76570312 153.23300781 198.53140625 152.46601563 199.3203125 151.67578125 C201.37088271 149.62820021 203.41791423 147.75555744 205.61450195 145.87744141 C210.21778128 141.86634165 214.5373589 137.606815 218.84765625 133.28515625 C219.66318466 132.47058456 220.47871307 131.65601288 221.31895447 130.8167572 C223.03198008 129.10440807 224.74375965 127.39081158 226.4543457 125.67602539 C229.05503552 123.06997985 231.66101956 120.46931478 234.26757812 117.86914062 C235.94042486 116.19563301 237.61296134 114.52181518 239.28515625 112.84765625 C240.05513443 112.0797023 240.82511261 111.31174835 241.61842346 110.52052307 C244.95441321 107.17021548 248.21192664 103.80631078 251.28173828 100.20947266 C255.74390191 95.03521723 260.63429769 90.28680853 265.49436378 85.49160194 C267.24192769 83.76632994 268.98526783 82.03689073 270.72746277 80.30619812 C275.67527254 75.39174773 280.62741216 70.4817226 285.58959961 65.58178711 C288.63856806 62.57048068 291.68016257 59.55189261 294.71716881 56.5285244 C295.87102676 55.38270383 297.02765235 54.23966315 298.18711281 53.0995121 C299.80463934 51.50849193 301.41262334 49.90837539 303.01879883 48.3059082 C303.93478348 47.39960159 304.85076813 46.49329498 305.79450989 45.55952454 C308.83540072 42.03049729 309.85530936 39.27810062 310.375 34.6875 C309.90835238 30.0987984 308.67214573 26.75898176 306 23 C301.17360148 19.15858077 297.44595529 17.93482257 291.328125 17.57421875 C285.1490623 18.70428223 280.44955991 23.11743528 276.20410156 27.47119141 C275.40512703 28.27191826 275.40512703 28.27191826 274.5900116 29.08882141 C272.84978382 30.83617516 271.12032297 32.5937904 269.390625 34.3515625 C268.17543639 35.57489687 266.9595021 36.79749093 265.74285889 38.01937866 C262.55480393 41.2244847 259.37544121 44.4380679 256.19830322 47.6539917 C251.1016667 52.81002325 245.99211628 57.95325132 240.88207245 63.09598923 C239.10060316 64.89140833 237.32300679 66.69059229 235.54595947 68.49038696 C234.45682928 69.58953931 233.3676205 70.68861378 232.27832031 71.78759766 C231.78581284 72.28841354 231.29330536 72.78922943 230.78587341 73.30522156 C225.26772059 78.85914216 225.26772059 78.85914216 220.625 79.375 C216.4365615 78.94171326 214.93759961 77.93759961 212 75 C210.49110531 71.98221063 210.49973724 70.37677363 211 67 C216.27671734 59.48149299 223.68184354 53.10097663 230.14453125 46.58203125 C230.72138861 45.99985022 231.29824596 45.41766918 231.89258385 44.8178463 C234.94188398 41.74200063 237.9947271 38.6697171 241.05004883 35.59985352 C243.56006043 33.07647822 246.0625895 30.54602337 248.55883789 28.0090332 C251.59667155 24.9216561 254.64680868 21.84694873 257.70596886 18.78070641 C258.86034028 17.61966824 260.01049139 16.45441649 261.15607643 15.28470802 C270.640337 5.6120788 279.0936779 -0.98498757 293.125 -1.3125 C303.14543157 -1.21059731 311.7168828 2.05228951 319 9 C326.65603007 17.54343355 329.41347154 26.40591685 329.2734375 37.8046875 C328.11618353 51.32802671 318.91187595 59.25029114 309.7890625 68.30859375 C308.60470612 69.49075974 308.60470612 69.49075974 307.39642334 70.69680786 C305.69466035 72.39478768 303.99174387 74.09161209 302.28778076 75.78738403 C299.58609729 78.47621768 296.88762547 81.16823814 294.18994141 83.86108398 C287.9770962 90.0615766 281.75959479 96.25738918 275.5418396 102.45295715 C269.38224846 108.59068199 263.22468022 114.73041842 257.07049561 120.87356567 C254.42095641 123.51665546 251.76840705 126.15669826 249.11572266 128.79663086 C247.48064527 130.42807333 245.84570945 132.05965771 244.2109375 133.69140625 C243.48034119 134.41683624 242.74974487 135.14226624 241.99700928 135.88967896 C237.9852062 139.90107184 234.15416797 144.01082096 230.45887756 148.31626892 C228.74149599 150.29834665 226.93567742 152.16505069 225.0625 154 C224.47597656 154.5775 223.88945312 155.155 223.28515625 155.75 C222.64900391 156.36875 222.64900391 156.36875 222 157 C247.17988207 184.85203282 298.93656133 199.14123624 335.21914673 201.12109375 C340.85397314 201.32740593 346.48711133 201.33736562 352.125 201.3125 C352.98405945 201.31067719 353.8431189 201.30885437 354.72821045 201.30697632 C367.70423453 201.26066032 380.27347891 200.72274768 393 198 C393.84546387 197.82839355 394.69092773 197.65678711 395.56201172 197.47998047 C418.65638583 192.72338105 450.78838877 185.37682359 464.875 164.75 C471.93416307 152.55083166 474.272592 139.60968511 471.3046875 125.75390625 C467.16684331 113.49684678 459.22780309 104.6112854 450.2421875 95.67578125 C449.09073034 94.51907447 447.9397901 93.36185291 446.78933716 92.20414734 C444.38697659 89.79143768 441.97737673 87.38626384 439.5625 84.98608398 C436.49457224 81.93531931 433.44743197 78.86470853 430.40572929 75.78782368 C428.03633487 73.39628718 425.65515397 71.0167565 423.27054214 68.64040184 C422.1434067 67.51407704 421.02001292 66.38399299 419.90075302 65.24984169 C406.54935091 51.74815992 393.62805206 44.8052409 374.3828125 44.50390625 C370.41461498 43.91280061 368.77355627 42.85543247 366 40 C364.85111482 36.05070721 364.56870604 33.97041141 366.25 30.1875 C368 28 368 28 371 26 C384.51683819 24.85626754 396.75729694 26.7058665 409.0625 32.5 C409.67488525 32.77714844 410.28727051 33.05429687 410.91821289 33.33984375 C422.20523121 39.03132311 431.56104704 50.38433508 440.42578125 59.1875 C441.19051286 59.94611832 441.19051286 59.94611832 441.97069359 60.72006226 C444.65951907 63.3883035 447.3452546 66.05961105 450.02856445 68.73339844 C452.76768533 71.46139671 455.51831846 74.17748244 458.27155781 76.89122009 C460.42065122 79.01398185 462.56063265 81.14576117 464.69838524 83.27993774 C465.70792467 84.28466924 466.72078057 85.28608178 467.73726845 86.28378296 C481.54883398 99.85538426 491.07238485 115.56797598 491.38037109 135.25878906 C491.34208373 156.13584473 485.5899082 172.09977716 470.78125 187.2734375 C451.34540482 204.80260166 421.04204153 212.01574024 396 217 C395.21737793 217.16371094 394.43475586 217.32742188 393.62841797 217.49609375 C335.00888193 229.28087275 271.61335699 213.93416938 222.10546875 181.7890625 C218.104913 179.12685146 214.34120215 176.2539909 210.7890625 173.01171875 C209.00921258 171.80512227 209.00921258 171.80512227 206.703125 172.04296875 C203.08827005 173.32279456 200.21373812 175.4120038 197.125 177.625 C168.45189764 197.34809631 131.6174074 203.6936315 97.47753906 197.86889648 C93.60032126 197.07597174 89.80226333 196.09359371 86 195 C85.25331055 194.79632813 84.50662109 194.59265625 83.73730469 194.3828125 C60.22230232 187.84582343 40.40454125 174.79768835 23 158 C21.72189453 156.81664062 21.72189453 156.81664062 20.41796875 155.609375 C-4.36143753 132.03967202 -20.35063769 96.34604851 -21.3359375 62.21484375 C-21.37607759 59.45543121 -21.38215145 56.6971639 -21.375 53.9375 C-21.37512085 53.21655151 -21.3752417 52.49560303 -21.37536621 51.75280762 C-21.34689932 39.78413574 -20.21382316 28.55419467 -17 17 C-16.66131617 15.6823282 -16.32276905 14.36462125 -15.984375 13.046875 C-13.37535817 3.64613181 -13.37535817 3.64613181 -9 0 C-5.41563853 -1.19478716 -3.63093708 -0.96330984 0 0 Z " fill="#000000" transform="translate(21,285)"/>
<path d="M0 0 C0.95519531 -0.01160156 1.91039063 -0.02320313 2.89453125 -0.03515625 C12.77415788 0.00495049 21.62543128 2.49198568 30.4375 6.875 C31.05044922 7.15085937 31.66339844 7.42671875 32.29492188 7.7109375 C47.18277813 15.04127568 59.34422291 30.93443933 70.99145508 42.51635742 C73.12063959 44.6321826 75.25687728 46.74047636 77.3996582 48.8425293 C95.24785742 66.35970302 112.16539277 83.21627748 112.79248047 109.89575195 C112.91836028 125.09190164 108.8367168 137.66656933 102.5 151.375 C103.09167969 151.17003906 103.68335938 150.96507812 104.29296875 150.75390625 C115.1061577 147.06719093 125.06973783 145.80190875 135.859375 150.375 C141.08426712 153.04004565 145.55497287 156.1935237 148.5 161.375 C149.35109597 165.86259694 149.070255 167.53743797 146.5 171.3125 C143.41911509 173.43060837 141.42571322 174.15699511 137.671875 173.9453125 C134.17159957 173.02617543 131.62240692 170.88802439 128.72265625 168.7890625 C125.12522425 166.50036235 122.77963994 166.30706921 118.5 166.375 C109.81327703 168.34100872 104.59986263 174.62055678 98.57958984 180.75952148 C97.39713438 181.94666618 96.21355577 183.13269307 95.02894592 184.31768799 C92.48816398 186.86409302 89.95547154 189.4181859 87.42884445 191.97863579 C83.43165711 196.02925824 79.41694811 200.06220872 75.39981079 204.09303284 C69.04748051 210.47120106 62.70715725 216.8611554 56.37180483 223.25618368 C45.02649462 234.70782176 33.66334945 246.14173656 22.29215586 257.56766945 C18.30405276 261.5759789 14.32202027 265.59019564 10.34490561 269.60940731 C7.86858897 272.11024276 5.3882132 274.60702394 2.9068737 277.10287476 C1.75943566 278.25883129 0.61375398 279.41653438 -0.53000832 280.57612801 C-2.09492096 282.1622878 -3.66600909 283.74207691 -5.23867798 285.32054138 C-6.55323943 286.64760935 -6.55323943 286.64760935 -7.89435768 288.00148678 C-11.82673667 291.58354156 -14.89423013 294.18766018 -20.25 294.8125 C-30.21419619 292.83098371 -38.13776944 277.83848318 -43.546875 269.90234375 C-48.35080889 262.66042907 -52.52868478 255.09918249 -56.5 247.375 C-56.86077637 246.67407227 -57.22155273 245.97314453 -57.59326172 245.25097656 C-63.30248981 234.00098077 -67.67393289 222.38673581 -71.5 210.375 C-71.73847656 209.62637695 -71.97695312 208.87775391 -72.22265625 208.10644531 C-89.42860046 152.92452425 -85.17577055 88.03734054 -58.98779297 36.39282227 C-50.20180468 19.98947276 -37.76404228 8.60187801 -20.01318359 2.5234375 C-13.26286872 0.48978919 -7.02575507 -0.08533306 0 0 Z M-35.1875 32.875 C-49.57315339 50.95103478 -56.21663425 76.09206527 -60.5 98.375 C-60.66226074 99.18275879 -60.82452148 99.99051758 -60.99169922 100.82275391 C-71.60191629 155.69148225 -57.88921849 214.66133846 -26.88525391 260.68505859 C-24.28692883 264.43171551 -21.45467223 267.90964368 -18.5 271.375 C-12.94522143 266.72027899 -7.70424397 261.81427033 -2.50708008 256.76538086 C-1.63466171 255.9204155 -0.76224335 255.07545013 0.13661194 254.20487976 C8.15133138 246.42939384 16.11976567 238.60669014 24.07129955 230.76663876 C29.4008474 225.51356224 34.74527282 220.27770381 40.13061523 215.08178711 C44.85144453 210.52697879 49.54057208 205.94210299 54.1953724 201.31980234 C56.65059692 198.88367413 59.11769533 196.46383576 61.62340355 194.07957268 C73.79906169 182.42674883 81.06227804 173.77168752 82.25348854 156.63286018 C83.34172675 146.66541395 88.42753854 136.81672463 92.265625 127.6171875 C96.21625925 117.24052159 95.24104075 106.25335161 92.05859375 95.80078125 C87.19095546 85.10173669 79.80520318 77.08053299 71.57421875 68.91796875 C70.41932452 67.7603715 69.26502389 66.60218177 68.11128235 65.44343567 C65.70635257 63.03265133 63.29444889 60.62914023 60.87719727 58.23071289 C57.80077419 55.17710228 54.74270087 52.10584185 51.68965435 49.02888012 C49.31438456 46.63906445 46.92955624 44.25896967 44.54184914 41.88158607 C43.41116764 40.7535463 42.28337561 39.62260164 41.15872765 38.48854637 C29.56710011 26.82125361 17.552517 18.07044946 0.5625 17.875 C-13.10226279 18.04593314 -25.5793189 22.87553551 -35.1875 32.875 Z " fill="#000000" transform="translate(95.5,6.625)"/>
<path d="M0 0 C4.09175246 2.77734196 7.05159654 5.39058257 9 10 C9.4375 12.9375 9.4375 12.9375 9 16 C6.71442942 18.93859075 4.99849137 20.62556574 1.5 21.9375 C-2.22818028 22.03070451 -4.70112057 20.95112452 -7.70703125 18.75 C-12.47086975 15.33478381 -16.16361352 14.4074677 -21.99609375 14.23828125 C-29.74596007 16.20346192 -35.86580631 22.43047809 -41.32397461 27.99926758 C-41.99507263 28.67153381 -42.66617065 29.34380005 -43.35760498 30.03643799 C-45.54626822 32.23221649 -47.7242171 34.43830507 -49.90234375 36.64453125 C-51.43095336 38.18128676 -52.9603082 39.71730131 -54.4903717 41.25260925 C-58.49584136 45.2751163 -62.49263358 49.30612899 -66.48718262 53.33947754 C-72.90270713 59.81444944 -79.33121992 66.27652238 -85.76013374 72.73819542 C-88.00420453 74.99624787 -90.24443472 77.25805629 -92.4841156 79.52046204 C-93.84992562 80.89628962 -95.2158119 82.27204151 -96.58178711 83.64770508 C-97.51759361 84.5959742 -97.51759361 84.5959742 -98.4723053 85.56340027 C-103.78320484 90.90187136 -103.78320484 90.90187136 -108.875 91.3125 C-111.90496257 91.26300878 -112.83228694 91.11180871 -115.4375 89.375 C-117.3861606 86.41303588 -117.92895147 84.55242634 -118 81 C-115.84956824 75.50835397 -112.40425478 71.97121975 -108.30053711 67.89648438 C-107.62365845 67.21274246 -106.94677979 66.52900055 -106.24938965 65.82453918 C-104.01632389 63.57321944 -101.77239471 61.33311362 -99.52734375 59.09375 C-97.96338418 57.52522653 -96.39979625 55.95633241 -94.83656311 54.38708496 C-91.55890015 51.10049248 -88.27562413 47.81963471 -84.98852539 44.54248047 C-80.79276252 40.35818032 -76.61301508 36.15828781 -72.43762875 31.95366669 C-69.21118242 28.70879909 -65.9753935 25.47337423 -62.73687935 22.24055481 C-61.19296343 20.69679152 -59.65211814 19.14995057 -58.1145153 17.59989929 C-42.25722038 1.63241194 -22.89737915 -12.63036481 0 0 Z " fill="#000000" transform="translate(311,234)"/>
<path d="M0 0 C2.86022612 1.97562011 5.4128575 3.825715 7 7 C7.5730659 14.10601719 7.5730659 14.10601719 5.4375 17.4375 C2.05139603 19.60807947 0.0511616 20.06641249 -4 20 C-6.38124996 18.89155975 -8.56572119 17.58525644 -10.8125 16.2265625 C-14.55453092 14.12835231 -17.82233282 13.56663936 -22.04027462 14.40601921 C-28.43339182 16.29407891 -32.14137586 19.34246062 -36.68774414 24.11767578 C-37.39797226 24.83827179 -38.10820038 25.5588678 -38.83995056 26.30130005 C-40.37056311 27.85796884 -41.89423048 29.42149141 -43.41154671 30.9911232 C-45.81519877 33.47637491 -48.23785082 35.941611 -50.66636658 38.40255737 C-56.69022509 44.51438131 -62.68273513 50.65660812 -68.67169189 56.8026123 C-73.74188568 62.00441452 -78.82577783 67.19200593 -83.92996025 72.36046982 C-86.31503359 74.78712114 -88.67848817 77.23356088 -91.04200745 79.68118286 C-92.50747795 81.16888815 -93.97397162 82.65558649 -95.44165039 84.14111328 C-96.09070343 84.82475952 -96.73975647 85.50840576 -97.40847778 86.21276855 C-100.5138219 89.31335092 -102.83948954 91.34497723 -107.25364685 92.04977417 C-110.83055759 92.00225122 -111.73808799 91.97366075 -114.5 90.0625 C-117.0402084 86.95074471 -117.9625369 85.1438836 -117.65196323 81.0942049 C-116.8510384 78.52151273 -115.6990289 77.16237879 -113.88108826 75.18022156 C-113.2458769 74.48409445 -112.61066555 73.78796734 -111.95620537 73.07074547 C-109.03939153 69.98314581 -106.09071935 66.93519463 -103.09008789 63.92895508 C-102.43867325 63.27257553 -101.78725861 62.61619598 -101.11610413 61.93992615 C-98.98768791 59.79705587 -96.85553241 57.65796189 -94.72265625 55.51953125 C-93.98884672 54.78289434 -93.25503719 54.04625744 -92.49899101 53.2872982 C-88.62157619 49.3949651 -84.74135037 45.50546123 -80.85864258 41.6184082 C-76.86303275 37.61730025 -72.87679725 33.60698706 -68.892663 29.59445667 C-65.81181904 26.49494888 -62.72424847 23.40220833 -59.63482475 20.3112545 C-58.16242364 18.83583882 -56.6925094 17.35793678 -55.22520638 15.87745094 C-53.17030204 13.80539519 -51.10603188 11.74311785 -49.03930664 9.68286133 C-48.44321594 9.07755585 -47.84712524 8.47225037 -47.23297119 7.84860229 C-35.00508498 -4.26044661 -15.60016804 -9.53173332 0 0 Z " fill="#000000" transform="translate(273,196)"/>
</svg>
