<svg height="511pt" viewBox="-39 0 511 511.99769" width="511pt" xmlns="http://www.w3.org/2000/svg"><path d="m79.742188 229.496094c-24.347657-.035156-47.800782-2.957032-69.714844-8.6875-4.0625-1.0625-8.214844 1.371094-9.277344 5.433594s1.367188 8.21875 5.429688 9.28125c23.160156 6.058593 47.90625 9.144531 73.542968 9.179687h.011719c4.191406 0 7.597656-3.398437 7.601563-7.59375.007812-4.199219-3.394532-7.609375-7.59375-7.613281zm0 0"/><path d="m414.558594 449.535156c-12.175782-9.664062-32.777344-7.75-42.441406-6.15625-25.097657-33.242187-49.742188-43.203125-63.019532-46.171875 2.210938-7.734375 5.707032-20.289062 9.714844-35.917969 1.042969-4.070312-1.40625-8.210937-5.472656-9.253906-4.074219-1.046875-8.210938 1.40625-9.257813 5.472656-6.738281 26.265626-11.984375 43.679688-12.039062 43.855469-.707031 2.339844-.285157 4.882813 1.203125 6.824219 1.492187 1.941406 3.808594 3.054688 6.230468 2.976562 1.253907.011719 31.09375.226563 63.183594 45.023438 1.785156 2.496094 4.914063 3.667969 7.898438 2.980469 6.371094-1.472657 26.390625-4.207031 34.558594 2.289062 1.515624 1.203125 3.527343 3.394531 3.527343 8.46875 0 10.089844-4.128906 18.199219-11.628906 22.835938-8.8125 5.445312-20.832031 5.367187-32.238281-.183594-6.101563-4.09375-61.175782-39.695313-102.597656-19.8125-17.621094 8.453125-34.011719 9.351563-44.960938 2.460937-8.714844-5.484374-13.511719-15.652343-13.511719-28.640624 0-13.789063 8.78125-24.90625 18.082031-36.679688 10.996094-13.921875 23.460938-29.703125 17.695313-50.269531-13.433594-47.910157-12.1875-87.1875-8.777344-111.703125 2.851563-20.492188 7.527344-34.066406 9.597657-39.382813 23.007812-10.792969 33.625-22.25 34.082031-22.753906 2.832031-3.101563 2.613281-7.910156-.488281-10.742187-3.101563-2.828126-7.914063-2.609376-10.742188.492187-.097656.105469-10.109375 10.683594-31.835938 20.394531-.125.054688-1.335937.65625-2.570312 1.21875-10.839844 4.964844-58.929688 25.617188-119.457031 31.003906-4.183594.371094-7.273438 4.066407-6.902344 8.246094.355469 3.957032 3.671875 6.929688 7.566406 6.929688.226563 0 .453125-.007813.683594-.027344 49.058594-4.371094 89.652344-18.066406 110.992187-26.574219-7.175781 25.535157-16.101562 78.128907 3.210938 147 3.675781 13.113281-4.972656 24.0625-14.988281 36.742188-10.011719 12.671875-21.355469 27.03125-21.355469 46.105469 0 18.402343 7.324219 33.144531 20.621094 41.511718 15.46875 9.734375 37.207031 9.140625 59.636718-1.625 35.027344-16.8125 87.355469 18.597656 87.875 18.957032.292969.199218.597657.378906.910157.535156 8.050781 4.023437 16.457031 6.03125 24.523437 6.03125 8.253906 0 16.152344-2.101563 22.945313-6.300782 11.976562-7.402343 18.839843-20.441406 18.839843-35.769531 0-8.515625-3.210937-15.566406-9.292968-20.390625zm0 0"/><path d="m9.15625 76.109375c.703125-.101563 71.347656-9.839844 145.789062-10.996094 94.726563-1.464843 154.886719 11.753907 169.367188 37.238281 18.238281 32.09375 13.609375 112.304688-13.03125 225.855469-.957031 4.089844 1.578125 8.179688 5.667969 9.140625.582031.136719 1.167969.203125 1.742187.203125 3.449219 0 6.574219-2.363281 7.398438-5.871093 19.464844-82.976563 37.253906-191.421876 11.445312-236.839844-10.308594-18.144532-33.960937-30.488282-72.308594-37.738282-28.917968-5.46875-66.148437-7.894531-110.648437-7.191406-75.363281 1.179688-146.808594 11.035156-147.523437 11.136719-4.160157.578125-7.0625005 4.417969-6.480469 8.578125.582031 4.160156 4.417969 7.058594 8.582031 6.484375zm0 0"/><path d="m246.136719 404.382812c-3.96875-1.359374-8.296875.753907-9.660157 4.726563-.519531 1.511719-4.859374 15.042969 2.085938 24.769531 2.746094 3.839844 8.265625 8.421875 18.980469 8.421875 4.199219 0 7.601562-3.402343 7.601562-7.601562s-3.402343-7.605469-7.601562-7.605469c-2.335938 0-5.375-.355469-6.59375-2.042969-1.746094-2.414062-1.078125-8.011719-.074219-11.039062 1.339844-3.964844-.777344-8.269531-4.738281-9.628907zm0 0"/><path d="m366.296875 71.644531c1.351563 2.621094 4.007813 4.121094 6.765625 4.121094 1.171875 0 2.363281-.269531 3.476562-.84375l43.972657-22.667969c3.730469-1.925781 5.199219-6.511718 3.273437-10.246094-1.925781-3.734374-6.515625-5.195312-10.242187-3.273437l-43.972657 22.667969c-3.730468 1.925781-5.199218 6.511718-3.273437 10.242187zm0 0"/><path d="m351.511719 41.496094c1.398437 1.109375 3.066406 1.648437 4.71875 1.648437 2.242187 0 4.460937-.988281 5.964843-2.878906l22.15625-27.9375c2.609376-3.289063 2.058594-8.070313-1.230468-10.679687-3.292969-2.613282-8.074219-2.058594-10.683594 1.230468l-22.15625 27.933594c-2.613281 3.289062-2.0625 8.074219 1.230469 10.683594zm0 0"/><path d="m433.074219 98.542969c-.21875-4.191407-3.785157-7.425781-7.988281-7.199219l-35.605469 1.847656c-4.195313.214844-7.417969 3.792969-7.199219 7.984375.210938 4.0625 3.566406 7.210938 7.585938 7.210938.132812 0 .265624-.003907.402343-.007813l35.605469-1.847656c4.195312-.21875 7.417969-3.792969 7.199219-7.988281zm0 0"/></svg>