<?xml version="1.0" encoding="UTF-8"?>
<svg version="1.1" xmlns="http://www.w3.org/2000/svg" width="512" height="512">
<path d="M0 0 C1.1942157 0.00149048 2.3884314 0.00298096 3.61883545 0.0045166 C20.76662844 0.04304128 37.56794803 0.37941282 54.5 3.3125 C55.9233667 3.54525635 55.9233667 3.54525635 57.37548828 3.78271484 C60.15188419 4.24474103 62.92026682 4.73609257 65.6875 5.25 C66.4727002 5.3953418 67.25790039 5.54068359 68.06689453 5.69042969 C76.799967 7.50255659 84.00531307 11.1478592 89.5 18.3125 C90.89190579 20.92618977 92.12585823 23.53911144 93.26171875 26.2734375 C94.33553398 28.41426519 94.33553398 28.41426519 96.3203125 29.34765625 C99.70370166 29.29308546 101.17036169 27.55797276 103.6875 25.375 C104.65816406 24.54871094 105.62882813 23.72242187 106.62890625 22.87109375 C108.4094957 21.28430995 110.17144055 19.6759962 111.90234375 18.03515625 C117.86787137 12.40512403 123.1993593 9.36485972 131.5 8.9375 C141.42414476 9.46186773 149.3590805 14.93274923 157.53173828 20.08203125 C159.47524689 21.29702547 161.43579672 22.47899736 163.40234375 23.65625 C171.0872675 28.32064213 176.48765695 32.04207772 179.8125 40.75 C181.18121448 47.84242956 180.56903244 52.49822531 178.18359375 59.15234375 C176.67234522 63.9278891 177.0481408 67.25816188 179 71.8125 C181.74474275 76.13115118 185.59741551 79.08046267 189.5 82.3125 C191.17325373 83.80514856 192.83969876 85.30545734 194.5 86.8125 C197.48062721 89.50233431 200.47245233 92.17560364 203.5 94.8125 C204.8335002 95.97897593 206.1668228 97.14565492 207.5 98.3125 C208.31597656 99.02277344 209.13195312 99.73304687 209.97265625 100.46484375 C225.93744498 114.55142204 225.93744498 114.55142204 226.7109375 123.84765625 C227.18246527 137.03229805 220.71171207 145.20753925 212.1484375 154.63427734 C206.95223797 159.92436555 201.70465756 161.51714754 194.4375 161.875 C185.82992402 161.4363974 180.52582505 158.19684079 173.8125 153 C159.18153373 141.71113262 141.11049783 134.9135901 122.5 136.3125 C112.9347534 138.0400877 106.32170188 141.287992 100.5 149.3125 C97.96761008 154.56050185 96.56128686 159.6855682 95.375 165.375 C95.20613281 166.15166016 95.03726563 166.92832031 94.86328125 167.72851562 C92.81480938 175.19168836 92.81480938 175.19168836 93.1875 182.625 C94.37750713 184.42292391 94.37750713 184.42292391 96.2890625 185.1328125 C98.62321238 185.53986258 98.62321238 185.53986258 100.76171875 183.94140625 C101.96248047 182.91853516 101.96248047 182.91853516 103.1875 181.875 C104.50041016 180.77285156 104.50041016 180.77285156 105.83984375 179.6484375 C108.33445508 177.45786838 110.79504844 175.23479516 113.25 173 C119.00352531 167.83398256 124.06435859 165.74736681 131.6875 165 C141.52188054 165.80609677 150.06774606 171.74443129 158.3125 176.75 C159.41787109 177.40548828 160.52324219 178.06097656 161.66210938 178.73632812 C162.72880859 179.37892578 163.79550781 180.02152344 164.89453125 180.68359375 C165.85206299 181.26036865 166.80959473 181.83714355 167.79614258 182.43139648 C173.77023749 186.5876404 177.63221604 191.48739144 180.25 198.25 C180.90078065 203.61894039 180.83493686 207.80295755 179 212.875 C177.05705995 218.29478013 176.65279448 222.23299555 178.875 227.6875 C182.09227788 232.77581891 186.95634612 236.45727853 191.5 240.3125 C192.8351973 241.47703298 194.16868014 242.64353622 195.5 243.8125 C196.46292969 244.65167969 196.46292969 244.65167969 197.4453125 245.5078125 C200.62702975 248.30240066 203.76952171 251.13986401 206.91015625 253.98046875 C208.65918339 255.55538459 210.41727193 257.12028678 212.18359375 258.67578125 C225.9432897 270.84074275 225.9432897 270.84074275 226.71875 279.85546875 C227.15539991 293.0459349 220.71787989 301.1985329 212.14404297 310.63427734 C206.74902282 316.14146008 201.41837535 317.53684869 193.875 317.875 C185.20543517 317.47035287 180.75278439 314.31138166 174.0625 309.0625 C158.88364946 297.48767302 139.31483543 290.30352621 120.11328125 292.59765625 C113.18729821 293.80882137 107.39564961 296.93123745 102.6875 302.1875 C98.50092852 308.1683164 96.84390239 314.33014412 95.375 321.375 C95.20613281 322.15166016 95.03726563 322.92832031 94.86328125 323.72851562 C94.39193764 325.92007786 93.94278048 328.11501616 93.5 330.3125 C93.26667969 331.42753906 93.03335938 332.54257812 92.79296875 333.69140625 C92.4099937 337.11775639 93.50014969 338.59270358 95.5 341.3125 C100.41415036 340.90896576 102.90413346 338.45073039 106.25 335.125 C113.76578771 327.97575147 120.79197979 321.8885169 131.5078125 321.1796875 C142.61724029 321.54863529 153.33114825 329.66571054 162.5 335.3125 C163.30099121 335.79823486 164.10198242 336.28396973 164.92724609 336.78442383 C172.58148398 341.61397923 178.40787089 347.26404161 180.5 356.3125 C180.97657709 361.23712998 180.50290058 364.58265358 178.9375 369.25 C177.35921352 374.19732109 176.83740123 378.31536324 178.5 383.3125 C181.44442054 388.17587048 186.0095977 391.7805927 190.296875 395.4296875 C192.73753149 397.51549677 195.11948824 399.65835592 197.5 401.8125 C200.48062721 404.50233431 203.47245233 407.17560364 206.5 409.8125 C207.83400496 410.97839865 209.16728759 412.14512409 210.5 413.3125 C211.35078125 414.05757813 212.2015625 414.80265625 213.078125 415.5703125 C213.95984375 416.35148437 214.8415625 417.13265625 215.75 417.9375 C216.55953125 418.65164063 217.3690625 419.36578125 218.203125 420.1015625 C224.2191893 425.89253596 226.5430467 430.73633719 226.9375 439.0625 C226.70031599 448.70402998 222.03889051 454.98004053 216.125 462.1875 C215.67922607 462.735271 215.23345215 463.28304199 214.77416992 463.84741211 C210.61308054 468.68819837 205.05628722 473.02781034 198.5234375 473.55078125 C187.75431864 473.76985326 182.90332665 471.88678139 174.5 465.5625 C160.35826427 455.07844696 141.43312069 446.66837688 123.5 448.3125 C114.99050653 449.66758803 107.65421897 451.8905463 102.25756836 458.93408203 C98.59638051 464.28468429 97.18988912 469.50986305 95.9375 475.8125 C94.27125054 484.02010332 92.43355766 491.99901142 86.25 498.0625 C85.72921875 498.59359375 85.2084375 499.1246875 84.671875 499.671875 C78.90604524 504.02735791 72.72049683 506.07318117 65.6875 507.375 C64.37821533 507.61814941 64.37821533 507.61814941 63.04248047 507.86621094 C60.19864423 508.37313184 57.35077861 508.84632581 54.5 509.3125 C53.6116748 509.46638184 52.72334961 509.62026367 51.80810547 509.77880859 C16.43650737 515.65607251 -49.97852075 521.97358776 -81.3828125 500.96875 C-91.4259972 493.1120889 -93.93204989 482.23309275 -95.625 470.0625 C-95.78967773 468.91120605 -95.95435547 467.75991211 -96.12402344 466.57373047 C-96.6009423 463.15549719 -97.05325554 459.73478952 -97.5 456.3125 C-97.62149414 455.44206055 -97.74298828 454.57162109 -97.86816406 453.67480469 C-99.77972149 439.64340255 -99.7331525 425.50998725 -99.8125 411.375 C-99.82212769 410.38912903 -99.83175537 409.40325806 -99.8416748 408.38751221 C-99.86549887 405.54065458 -99.86768908 402.69459512 -99.86328125 399.84765625 C-99.87239029 398.99114975 -99.88149933 398.13464325 -99.8908844 397.25218201 C-99.85009457 391.85951152 -99.03313813 388.09852909 -96.5 383.3125 C-93.88246269 381.06889659 -92.48810574 381.3129248 -89 381.4375 C-85.10742986 382.41064253 -83.75102233 383.02254428 -81.5 386.3125 C-80.52359037 391.39885768 -80.40317408 396.35065369 -80.5078125 401.5078125 C-80.52795212 403.11302469 -80.54703351 404.71825043 -80.56518555 406.32348633 C-80.57560883 407.15796295 -80.5860321 407.99243958 -80.59677124 408.85220337 C-80.79024231 426.57101635 -79.91879452 443.73818175 -77.5 461.3125 C-77.3772168 462.2602832 -77.25443359 463.20806641 -77.12792969 464.18457031 C-76.79608308 466.71044407 -76.43830707 469.23033061 -76.0625 471.75 C-75.96477295 472.44778564 -75.8670459 473.14557129 -75.76635742 473.86450195 C-74.98658011 478.52969106 -73.63978853 481.7642837 -70.5 485.3125 C-63.8152688 488.71980299 -56.55610263 489.42365814 -49.1875 490.4375 C-48.02798828 490.60636719 -46.86847656 490.77523438 -45.67382812 490.94921875 C-34.91759246 492.4849601 -24.3051576 493.4655211 -13.4375 493.515625 C-11.90456802 493.52601051 -11.90456802 493.52601051 -10.34066772 493.53660583 C-7.06040565 493.55379244 -3.78030498 493.56019284 -0.5 493.5625 C0.61816101 493.56383942 1.73632202 493.56517883 2.8883667 493.56655884 C19.65246741 493.56219796 35.92607208 492.98003835 52.5 490.3125 C54.14954834 490.08066643 55.79927989 489.85013153 57.44921875 489.62109375 C64.60872161 488.52182427 69.34319121 487.58173921 74.5 482.3125 C75.73455188 479.65045868 75.73455188 479.65045868 76.1875 476.75 C76.41179687 475.698125 76.63609375 474.64625 76.8671875 473.5625 C77.07601562 472.49 77.28484375 471.4175 77.5 470.3125 C80.18104895 457.33754703 84.83463403 446.68196276 95.5 438.3125 C110.88240774 428.86822858 129.0487364 427.2882335 146.5 431.3125 C162.32008718 435.3977503 176.30307158 442.11734876 188.81640625 452.625 C192.13429702 454.71135926 193.65619171 455.12937191 197.5 454.3125 C199.64008396 452.25379952 201.1791397 450.49971676 202.875 448.125 C203.32488281 447.54685547 203.77476562 446.96871094 204.23828125 446.37304688 C206.13430399 443.82292511 207.42364808 441.7474556 207.9765625 438.59765625 C207.39572793 435.81250686 206.58681158 434.84730524 204.5 432.9375 C203.85675781 432.339375 203.21351563 431.74125 202.55078125 431.125 C201.87402344 430.526875 201.19726562 429.92875 200.5 429.3125 C199.87480469 428.755625 199.24960937 428.19875 198.60546875 427.625 C197.29868398 426.47524232 195.98591232 425.33226189 194.66796875 424.1953125 C192.25157049 422.0967468 189.87470976 419.958103 187.5 417.8125 C184.4974269 415.10330809 181.48440955 412.4092312 178.4375 409.75 C177.80070312 409.19054687 177.16390625 408.63109375 176.5078125 408.0546875 C175.07881933 406.81474401 173.63432873 405.59256463 172.1796875 404.3828125 C165.19275349 398.45660114 160.19238331 392.5436817 158.5 383.3125 C157.87335902 375.62495793 158.75083879 369.27278158 161.33203125 362.00390625 C161.79342688 359.18107955 161.79342688 359.18107955 159.7578125 356.890625 C155.46472644 353.16453638 150.44045598 350.37674327 145.5625 347.5 C144.09780273 346.6037793 144.09780273 346.6037793 142.60351562 345.68945312 C141.65283203 345.12548828 140.70214844 344.56152344 139.72265625 343.98046875 C138.86422119 343.46766357 138.00578613 342.9548584 137.12133789 342.42651367 C134.02302066 341.10979377 131.8361543 340.99102286 128.5 341.3125 C125.97844568 342.96595785 125.97844568 342.96595785 123.75 345.3125 C120.32836575 348.57438928 116.90542149 351.7496917 113.25 354.75 C112.48171875 355.38808594 111.7134375 356.02617187 110.921875 356.68359375 C105.19317862 360.53660405 99.20396828 361.10239354 92.5 360.3125 C85.16293347 358.42446008 80.9755062 354.24146642 76.5 348.3125 C75.42395508 348.7765625 75.42395508 348.7765625 74.32617188 349.25 C69.68875454 350.99343817 64.87944528 351.54990049 60 352.3125 C59.00613281 352.4775 58.01226562 352.6425 56.98828125 352.8125 C38.52352482 355.74851096 20.17545527 356.68982763 1.5 356.625 C0.432052 356.62350952 -0.635896 356.62201904 -1.73620605 356.6204834 C-18.83942695 356.57771418 -35.56783726 355.88847605 -52.5 353.3125 C-53.5091748 353.16796387 -54.51834961 353.02342773 -55.55810547 352.87451172 C-69.44867634 350.83330985 -80.1359794 348.51738206 -89.02734375 336.8515625 C-92.41598425 331.00907888 -93.96954921 324.97532089 -94.8515625 318.33203125 C-94.95592621 317.59732101 -95.06028992 316.86261078 -95.16781616 316.1056366 C-95.38540382 314.56085429 -95.59861954 313.01545032 -95.80761719 311.46948242 C-96.12205651 309.1467433 -96.45042443 306.82631523 -96.78125 304.50585938 C-98.89411487 289.48577481 -99.6640532 274.72658469 -99.63037109 259.56445312 C-99.62499747 256.68614467 -99.63035299 253.80799132 -99.63671875 250.9296875 C-99.64805687 226.52030167 -99.64805687 226.52030167 -96.875 221.1875 C-93.68330678 218.6677422 -91.5459002 218.3125 -87.5 218.3125 C-83.92612398 219.90088934 -82.68910428 221.02884358 -80.5 224.3125 C-80.27967834 226.45223999 -80.27967834 226.45223999 -80.32055664 228.96630859 C-80.33024979 229.91456512 -80.33994293 230.86282166 -80.34992981 231.83981323 C-80.36980453 232.86978424 -80.38967926 233.89975525 -80.41015625 234.9609375 C-80.43328856 237.17251912 -80.45572231 239.38410813 -80.47753906 241.59570312 C-80.49935242 243.33412476 -80.49935242 243.33412476 -80.52160645 245.10766602 C-80.75318901 265.380473 -80.65996065 285.24374359 -77.5 305.3125 C-77.35014648 306.31152344 -77.20029297 307.31054688 -77.04589844 308.33984375 C-76.60773829 311.17160484 -76.13021143 313.99199449 -75.625 316.8125 C-75.41955566 318.01616211 -75.41955566 318.01616211 -75.20996094 319.24414062 C-74.18536547 324.28523886 -72.70927221 327.05569085 -68.5 330.3125 C-58.43898329 334.78033046 -45.37569176 335.079411 -34.5 336.3125 C-33.64664063 336.41111328 -32.79328125 336.50972656 -31.9140625 336.61132812 C-21.47547906 337.65069997 -10.97949387 337.55438029 -0.5 337.5625 C0.51934631 337.56383942 1.53869263 337.56517883 2.58892822 337.56655884 C19.09446696 337.56186305 35.1625268 336.81206348 51.5 334.3125 C52.35722656 334.1897168 53.21445313 334.06693359 54.09765625 333.94042969 C64.52362626 332.52977353 64.52362626 332.52977353 73.5 327.3125 C76.2691319 322.27771473 77.26247317 317.13750104 78.3125 311.5625 C79.86329024 303.99776375 82.16212563 297.78355984 86.5 291.3125 C87.0775 290.405 87.655 289.4975 88.25 288.5625 C98.87073414 277.94176586 112.34853066 273.46428797 127.125 273 C149.79325412 273.46980838 171.61427559 281.9528443 188.71875 296.72265625 C191.47805259 298.58910657 191.47805259 298.58910657 195.03515625 298.41796875 C199.42588196 297.0170946 200.78146818 295.28548477 203.4375 291.5625 C204.20964844 290.51578125 204.98179687 289.4690625 205.77734375 288.390625 C207.54720287 285.22815565 208.20870372 283.83844741 207.5 280.3125 C206.05986105 278.22919295 206.05986105 278.22919295 204 276.4375 C203.26523437 275.74785156 202.53046875 275.05820312 201.7734375 274.34765625 C199.07563928 271.93261695 196.37708958 269.52238691 193.6328125 267.16015625 C191.22623179 265.0753345 188.86235055 262.94728467 186.5 260.8125 C183.47546544 258.08394436 180.44131881 255.36902586 177.375 252.6875 C176.73691406 252.12546875 176.09882813 251.5634375 175.44140625 250.984375 C174.1169797 249.84382256 172.76916647 248.7300107 171.40234375 247.640625 C166.28911309 243.47358095 163.24101717 239.30500718 160.5 233.3125 C160.066875 232.384375 159.63375 231.45625 159.1875 230.5 C157.35072777 221.984056 158.44501011 214.16099991 160.94140625 205.90625 C161.53216379 203.16315203 161.77007042 201.819652 160.5 199.3125 C158.84040863 198.62841032 157.17224758 197.96504137 155.5 197.3125 C153.71227906 196.30774104 151.94352941 195.26874743 150.19140625 194.203125 C149.19689453 193.61402344 148.20238281 193.02492187 147.17773438 192.41796875 C145.09688317 191.17859029 143.02391391 189.92588399 140.95898438 188.66015625 C139.96318359 188.07621094 138.96738281 187.49226562 137.94140625 186.890625 C137.04107666 186.34825195 136.14074707 185.80587891 135.21313477 185.24707031 C131.62202651 184.01007199 129.89737989 184.767369 126.5 186.3125 C124.50196589 187.94049021 124.50196589 187.94049021 122.8125 189.9375 C115.81438935 197.29827665 108.12250064 203.65024994 97.75 204.6875 C91.57704397 204.47504645 85.84673741 202.5044615 81.30859375 198.265625 C79.61382958 196.33462097 78.01845822 194.38403903 76.5 192.3125 C75.83355469 192.51746094 75.16710937 192.72242188 74.48046875 192.93359375 C58.11957525 197.71600877 58.11957525 197.71600877 51.4375 195.125 C49.3201766 193.14427811 48.27738313 192.11107928 47.5 189.3125 C47.63243169 185.60441271 47.8431669 183.18827747 50.09375 180.1875 C53.27729919 177.70681232 55.90408433 177.41487443 59.875 176.8125 C65.40414525 175.97038569 69.2153239 175.01683092 73.5 171.3125 C76.27094669 166.26937703 77.2993674 161.08346801 78.375 155.5 C81.0308166 142.7951825 85.67295664 133.0522478 96.625 125.625 C112.80771273 115.81395481 131.43570148 115.41874434 149.45898438 119.76904297 C164.15285825 123.68155053 178.02394387 130.43981003 189.12109375 140.94140625 C191.54461 142.59213727 191.54461 142.59213727 194.9765625 142.38671875 C199.43432713 141.02764417 200.75381141 139.32425153 203.4375 135.5625 C204.20964844 134.51578125 204.98179687 133.4690625 205.77734375 132.390625 C207.55511165 129.21402385 208.24807809 127.84992353 207.5 124.3125 C205.83070607 121.99870207 205.83070607 121.99870207 203.5 119.9375 C202.26056641 118.76574219 202.26056641 118.76574219 200.99609375 117.5703125 C198.22026747 115.0594712 195.43716075 112.56369969 192.59765625 110.125 C190.20082688 108.05399659 187.84999818 105.93646782 185.5 103.8125 C182.43149817 101.0452008 179.35527163 98.28850181 176.25 95.5625 C175.28707031 94.71365234 175.28707031 94.71365234 174.3046875 93.84765625 C172.71693357 92.4970344 171.05060876 91.23995049 169.375 90 C163.34621923 84.36440058 159.01730936 76.54605833 158.19921875 68.26953125 C158.17433454 61.59226801 158.82220604 55.90286947 160.94140625 49.5546875 C161.74919387 47.16644244 161.74919387 47.16644244 160.5 44.3125 C156.90381843 41.68366912 153.0506373 39.46180255 149.21850586 37.1953125 C147.32592263 36.07047758 145.45130602 34.91925032 143.57617188 33.765625 C142.37079492 33.04519376 141.16444376 32.32638951 139.95703125 31.609375 C138.86366455 30.95291992 137.77029785 30.29646484 136.64379883 29.62011719 C133.00747662 28.1076421 131.23648185 28.20828796 127.5 29.3125 C125.44616256 30.83849799 125.44616256 30.83849799 123.75 32.875 C116.42114324 40.6366083 108.91218882 47.93889276 97.7734375 48.43359375 C89.98271885 48.10093221 84.7176738 45.62210734 79.3125 40.0625 C77.25849136 36.9460731 75.52591124 33.72866213 73.84375 30.3984375 C71.88623172 27.3597318 69.73013328 25.6824217 66.25195312 24.63647461 C65.02895508 24.42776733 65.02895508 24.42776733 63.78125 24.21484375 C62.84667969 24.05306641 61.91210938 23.89128906 60.94921875 23.72460938 C59.48935547 23.48967773 59.48935547 23.48967773 58 23.25 C57.08863281 23.08951172 56.17726562 22.92902344 55.23828125 22.76367188 C37.3161591 19.75246512 19.45986174 18.90782164 1.3125 18.9375 C0.22814667 18.93704681 -0.85620667 18.93659363 -1.97341919 18.93612671 C-37.98880517 17.92870303 -37.98880517 17.92870303 -71.5 28.1875 C-83.04078054 46.21996959 -80.73330616 78.5522372 -80.75 99.3125 C-80.75100708 100.18700806 -80.75201416 101.06151611 -80.75305176 101.96252441 C-80.74071505 117.912438 -79.83383991 133.51343996 -77.5 149.3125 C-77.27521973 150.83713867 -77.27521973 150.83713867 -77.04589844 152.39257812 C-76.60951498 155.20729776 -76.13205055 158.00972367 -75.625 160.8125 C-75.48803711 161.61397461 -75.35107422 162.41544922 -75.20996094 163.24121094 C-74.18716304 168.28009215 -72.72547976 171.07622215 -68.5 174.3125 C-55.71708978 179.57605127 -38.81529846 179.95474323 -25.1875 180.8046875 C-23.9701416 180.88130615 -22.7527832 180.9579248 -21.49853516 181.03686523 C-19.12418716 181.17652335 -16.7487564 181.2990661 -14.37255859 181.40258789 C-6.29196312 181.86298135 -6.29196312 181.86298135 -2.29296875 184.1328125 C0.05338007 186.98523655 0.45599935 188.74778034 0.7109375 192.34375 C0.36866161 195.53832498 -1.22623877 197.16866798 -3.5 199.3125 C-17.98979869 206.55739935 -48.1397508 198.14519704 -63.3125 195.375 C-64.13459961 195.2296582 -64.95669922 195.08431641 -65.80371094 194.93457031 C-75.1225792 193.09567808 -83.33641179 188.88417143 -89.125 181.125 C-101.55724901 159.68733985 -99.73263314 125.35582136 -99.75 101.375 C-99.75100708 100.40706512 -99.75201416 99.43913025 -99.75305176 98.44186401 C-99.70583908 31.01730178 -99.70583908 31.01730178 -85.71875 15.3125 C-77.94936684 7.91308747 -69.00710111 5.67992704 -58.625 4.1875 C-57.63242188 4.03152344 -56.63984375 3.87554687 -55.6171875 3.71484375 C-52.24950775 3.20292258 -48.87816654 2.74996851 -45.5 2.3125 C-44.83762329 2.22316193 -44.17524658 2.13382385 -43.49279785 2.04177856 C-29.00580309 0.12679017 -14.59679089 -0.0449435 0 0 Z " fill="currentColor" transform="translate(192.5,-0.3125)"/>
<path d="M0 0 C3.51072885 4.61938007 2.64203075 11.38099719 2.85498047 16.90429688 C2.93695718 18.92412534 3.04058618 20.94213697 3.14453125 22.9609375 C3.21994141 24.8790625 3.21994141 24.8790625 3.296875 26.8359375 C3.34811523 28.00560059 3.39935547 29.17526367 3.45214844 30.38037109 C3.15617418 33.93916125 2.29383774 35.71618437 0.1875 38.5625 C-2.4865203 40.66351595 -3.85534685 40.56096976 -7.3125 40.4375 C-11.20507014 39.46435747 -12.56147767 38.85245572 -14.8125 35.5625 C-16.23054183 28.75780263 -16.06972351 21.79930213 -16.125 14.875 C-16.16850586 13.04098633 -16.16850586 13.04098633 -16.21289062 11.16992188 C-16.22545898 9.40938477 -16.22545898 9.40938477 -16.23828125 7.61328125 C-16.26015503 6.01480347 -16.26015503 6.01480347 -16.2824707 4.3840332 C-15.69924624 0.8825656 -14.54196066 -0.24864021 -11.8125 -2.4375 C-7.61683675 -4.39547618 -3.48714334 -2.7656654 0 0 Z " fill="currentColor" transform="translate(151.8125,97.4375)"/>
<path d="M0 0 C2.43119623 1.87015094 3.64069173 3.28138345 5 6 C5.25491388 9.9086795 5.23289019 12.70942498 3 16 C-0.69329658 18.46219772 -3.7149344 18.79198683 -8 18 C-10.9838283 16.01078114 -12.60276841 14.61497432 -13.4765625 11.0625 C-13.75890933 7.13936508 -13.21925086 5.32887629 -11 2 C-6.84437903 -0.77041398 -4.93332128 -0.70476018 0 0 Z " fill="currentColor" transform="translate(151,57)"/>
</svg>
