<?xml version="1.0" encoding="UTF-8"?>
<svg version="1.1" xmlns="http://www.w3.org/2000/svg" width="512" height="512">
<path d="M0 0 C1.43780067 -0.0098568 1.43780067 -0.0098568 2.90464783 -0.01991272 C6.07477914 -0.03960681 9.24486296 -0.05130495 12.41503906 -0.0612793 C14.04776638 -0.06739259 14.04776638 -0.06739259 15.71347809 -0.07362938 C21.48427641 -0.094482 27.25505108 -0.10878249 33.02587891 -0.11816406 C38.94649003 -0.12917586 44.86671987 -0.1635175 50.78719711 -0.20333576 C55.37215808 -0.22967164 59.95703093 -0.23787127 64.54206085 -0.24144554 C66.72183024 -0.24627442 68.9015967 -0.25778071 71.0812912 -0.27648354 C96.18051913 -0.47831471 117.31245547 4.67153179 137.43066406 20.17700195 C138.17832031 20.75192383 138.92597656 21.3268457 139.69628906 21.91918945 C157.22501841 36.34243525 168.84127191 58.7300524 171.43066406 81.17700195 C172.00095727 90.20669616 171.87812495 99.27035701 171.86425781 108.3137207 C171.86882509 110.92829015 171.87413229 113.5428584 171.88014221 116.15742493 C171.89010729 121.60629295 171.88693141 127.05504172 171.87670898 132.50390625 C171.8651645 138.79644761 171.87943155 145.0885659 171.90610546 151.38105172 C171.93091215 157.46211642 171.9334473 163.54298537 171.9269886 169.62409401 C171.92683512 172.20255046 171.93290175 174.78101501 171.94528008 177.35944176 C171.96010634 180.94958917 171.94957826 184.53878915 171.93237305 188.12890625 C171.94204102 189.19434662 171.95170898 190.25978699 171.96166992 191.35751343 C171.88950355 198.52482002 171.88950355 198.52482002 169.57899475 201.80891418 C166.73091098 203.62261475 164.81537611 204.10930771 161.43066406 204.17700195 C156.09910104 202.22893085 156.09910104 202.22893085 154.27451134 199.35754776 C153.32587495 196.90622136 153.18018625 195.09987688 153.17910767 192.47576904 C153.1710334 191.06338455 153.1710334 191.06338455 153.16279602 189.62246704 C153.16692001 188.59600067 153.17104401 187.5695343 153.17529297 186.51196289 C153.16986229 184.88177719 153.16986229 184.88177719 153.1643219 183.21865845 C153.15742499 180.85604441 153.15492301 178.49341443 153.15626907 176.13079071 C153.15723489 172.37901595 153.14428132 168.6275273 153.12728882 164.87579346 C153.08105911 154.20732987 153.0563684 143.53891519 153.04980469 132.87036133 C153.0447594 126.34278672 153.02034783 119.81550691 152.984478 113.28803253 C152.97474081 110.81162546 152.97231445 108.33517749 152.97764969 105.85875702 C153.02875404 80.94889215 149.62177213 60.56740803 132.05566406 41.61450195 C131.18941406 40.81012695 130.32316406 40.00575195 129.43066406 39.17700195 C128.85445313 38.5840332 128.27824219 37.99106445 127.68457031 37.38012695 C123.15751826 32.96432571 118.39625861 29.79451249 112.80566406 26.92700195 C112.20391357 26.61013428 111.60216309 26.2932666 110.98217773 25.96679688 C96.8324181 19.04893492 82.84276425 18.5869694 67.42285156 18.6809082 C65.32308909 18.68075281 63.22332634 18.67925724 61.12356567 18.67649841 C56.74809913 18.67512274 52.37296369 18.68753427 47.99755859 18.71044922 C42.42211233 18.73886627 36.84721362 18.7360755 31.27172661 18.72335911 C26.94425879 18.71636699 22.616915 18.72423082 18.28946304 18.73661613 C16.23480837 18.74109387 14.18014022 18.74150007 12.12548447 18.73755074 C-1.93623217 18.72316513 -14.9880543 19.09340236 -27.69433594 25.86450195 C-28.36537354 26.21335449 -29.03641113 26.56220703 -29.7277832 26.92163086 C-46.12826857 35.66044673 -57.15394515 47.88916553 -64.72167969 64.7434082 C-65.83328819 67.02115695 -66.66208635 68.49701809 -68.56933594 70.17700195 C-71.84878297 71.28016673 -75.06371855 71.93721001 -78.46777344 72.5480957 C-83.8671209 73.6429256 -86.62323978 75.92406379 -89.88183594 80.23950195 C-92.01366328 83.95046067 -92.69457633 86.58282406 -92.70977783 90.78730774 C-92.71548798 91.73356018 -92.72119812 92.67981262 -92.7270813 93.65473938 C-92.72819916 94.69116074 -92.72931702 95.72758209 -92.73046875 96.79541016 C-92.73543365 97.88836395 -92.74039856 98.98131775 -92.74551392 100.10739136 C-92.76014471 103.73086166 -92.76693908 107.35428819 -92.77246094 110.9777832 C-92.77821161 113.49260968 -92.78396936 116.00743613 -92.78973389 118.52226257 C-92.79890231 123.1243248 -92.80520157 127.72637445 -92.80823064 132.32844478 C-92.81270942 139.09537328 -92.83025019 145.8620996 -92.85923123 152.62896663 C-92.88348075 158.49531403 -92.89117634 164.36159415 -92.89290619 170.22798729 C-92.89593444 172.72106209 -92.90396873 175.21413601 -92.91709137 177.70717812 C-92.93414006 181.19507804 -92.93227419 184.6824855 -92.92578125 188.17041016 C-92.93499603 189.20075882 -92.94421082 190.23110748 -92.95370483 191.29267883 C-92.91666217 197.6428491 -92.29287466 202.15084782 -87.88183594 207.05200195 C-87.44871094 207.42325195 -87.01558594 207.79450195 -86.56933594 208.17700195 C-86.56124908 207.48954895 -86.55316223 206.80209595 -86.54483032 206.09381104 C-86.46636127 199.56343452 -86.37892092 193.0332439 -86.28180885 186.50311661 C-86.23220731 183.14720302 -86.18687152 179.79136054 -86.14746094 176.43530273 C-86.10140838 172.56257088 -86.04348209 168.69016357 -85.98339844 164.81762695 C-85.97184723 163.63275696 -85.96029602 162.44788696 -85.94839478 161.22711182 C-85.60075978 141.27712702 -80.49114071 125.58109371 -66.69433594 110.86450195 C-54.4745326 99.17079582 -39.40305066 94.87367702 -22.93383789 94.88647461 C-21.68558731 94.87975739 -20.43733673 94.87304016 -19.15126038 94.86611938 C-15.74593622 94.8504346 -12.34085608 94.84376769 -8.93551278 94.84248781 C-6.80128403 94.84106022 -4.66708038 94.8367791 -2.53285789 94.83149338 C4.93213126 94.81301994 12.39704929 94.80481908 19.86206055 94.80639648 C26.78874531 94.80759604 33.71511756 94.78652359 40.64172333 94.75490916 C46.61402763 94.72863495 52.58623059 94.71803388 58.55859214 94.7193073 C62.11424862 94.71981383 65.66962724 94.71430476 69.22522545 94.6929512 C73.19966861 94.66973164 77.17369377 94.67915749 81.14819336 94.69116211 C82.30448242 94.6799231 83.46077148 94.66868408 84.65209961 94.65710449 C100.65110138 94.7791018 114.5897013 100.87397781 126.14550781 111.82543945 C139.06598698 125.12138554 144.52259928 140.58189844 144.57592773 158.9597168 C144.58096565 160.05926697 144.58096565 160.05926697 144.58610535 161.18103027 C144.59553274 163.58335105 144.597555 165.98560137 144.59863281 168.38793945 C144.60185353 170.08216377 144.60521819 171.77638781 144.60871887 173.47061157 C144.61469147 177.01939537 144.61656094 180.5681549 144.6159668 184.11694336 C144.61586585 188.61246926 144.62945663 193.10783483 144.64673901 197.60332298 C144.6579944 201.10572997 144.65988183 204.60810002 144.65935707 208.11052322 C144.6605193 209.76472139 144.66483914 211.41892109 144.67268944 213.07310104 C144.83219547 250.18670373 135.09822742 280.88294427 108.77441406 307.90356445 C87.11477018 328.48022614 57.65585069 339.72312477 27.8737793 339.53930664 C18.01353076 339.24763125 7.97889953 337.64350756 -1.56933594 335.17700195 C-1.78847656 336.1205957 -2.00761719 337.06418945 -2.23339844 338.03637695 C-4.36007606 346.77976607 -7.15803274 354.28076923 -11.56933594 362.17700195 C2.02648023 372.81193549 2.02648023 372.81193549 15.81347656 383.1965332 C17.570612 384.52618644 19.29510507 385.90001301 20.98535156 387.3137207 C21.77167969 387.96985352 22.55800781 388.62598633 23.36816406 389.30200195 C24.0371875 389.88208008 24.70621094 390.4621582 25.39550781 391.05981445 C28.17476202 392.58547031 29.42303367 392.04597801 32.43066406 391.17700195 C34.64188803 389.83342005 34.64188803 389.83342005 36.71582031 388.0871582 C37.49376953 387.46776367 38.27171875 386.84836914 39.07324219 386.21020508 C39.87181641 385.55987305 40.67039062 384.90954102 41.49316406 384.23950195 C43.08574614 382.95648202 44.68071443 381.67641709 46.27832031 380.3996582 C46.97965088 379.82997314 47.68098145 379.26028809 48.40356445 378.67333984 C52.42890418 375.70196719 55.3659607 374.55683419 60.43066406 375.17700195 C63.13057068 376.9769397 64.97255056 378.26077495 66.43066406 381.17700195 C66.90226704 384.07399169 66.98167211 386.19691104 65.51269531 388.80981445 C61.27608274 394.15217048 55.68463198 397.94438449 50.18701172 401.88549805 C48.28908541 403.28110969 46.44416019 404.73242407 44.59863281 406.1965332 C43.94757568 406.70216797 43.29651855 407.20780273 42.62573242 407.72875977 C41.35893882 408.7126833 40.1025379 409.71018326 38.85864258 410.72290039 C35.24515324 413.48101792 32.25576464 415.05914779 27.50683594 414.7265625 C23.20518336 413.58791951 19.9820698 410.78422492 16.55566406 408.05200195 C15.73630371 407.42326172 14.91694336 406.79452148 14.07275391 406.14672852 C11.5110674 404.17453913 8.97064134 402.17703807 6.43066406 400.17700195 C4.83824098 398.94351617 3.24452651 397.71169545 1.64941406 396.48168945 C-10.31332176 387.23180072 -10.31332176 387.23180072 -15.37402344 383.0402832 C-15.96006348 382.56429688 -16.54610352 382.08831055 -17.14990234 381.59790039 C-18.70090952 380.33586414 -20.23733274 379.05596229 -21.77246094 377.7746582 C-24.47247175 375.90519264 -24.47247175 375.90519264 -27.60449219 376.29418945 C-30.4168392 377.13159449 -33.06454777 378.07493079 -35.75683594 379.23950195 C-38.69588266 380.50812273 -40.33588408 381.17700195 -43.56933594 381.17700195 C-43.56933594 393.71700195 -43.56933594 406.25700195 -43.56933594 419.17700195 C-41.58933594 419.83700195 -39.60933594 420.49700195 -37.56933594 421.17700195 C-30.56150751 424.98560436 -23.37505891 431.86205069 -20.97167969 439.68481445 C-19.44474143 449.14293685 -19.26258211 458.9017827 -24.56933594 467.17700195 C-24.98183594 467.87180664 -25.39433594 468.56661133 -25.81933594 469.2824707 C-30.49112884 476.35652076 -37.29492037 480.64312 -45.50683594 482.61450195 C-56.06404034 484.17914223 -64.63715964 482.0467178 -73.56933594 476.17700195 C-80.72470777 470.05118002 -84.40771973 462.45942893 -85.44433594 453.17700195 C-85.92536545 443.43307081 -83.59429246 435.94535015 -77.56933594 428.17700195 C-72.42032798 423.10288866 -68.68560411 421.21022143 -61.56933594 419.17700195 C-61.56933594 407.29700195 -61.56933594 395.41700195 -61.56933594 383.17700195 C-74.78856155 385.89554071 -74.78856155 385.89554071 -86.88183594 390.80200195 C-87.53152344 391.14191162 -88.18121094 391.48182129 -88.85058594 391.83203125 C-104.76787509 400.50406121 -115.94346523 414.364029 -121.69517517 431.53878784 C-124.24888353 440.56750597 -125.13331139 448.81434224 -125.07324219 458.24731445 C-125.08063714 459.6263863 -125.0902002 461.00544801 -125.10179138 462.38449097 C-125.12812416 465.96305456 -125.13409994 469.5412841 -125.13269043 473.11993408 C-125.13043485 478.87988684 -125.14468976 484.63943419 -125.18827629 490.39922714 C-125.19805267 492.39610397 -125.18900262 494.39304457 -125.17958069 496.3899231 C-125.18646408 497.60243744 -125.19334747 498.81495178 -125.20043945 500.06420898 C-125.19947769 501.12705109 -125.19851593 502.18989319 -125.19752502 503.28494263 C-125.62475128 506.60803947 -126.5966226 508.49188703 -128.56933594 511.17700195 C-130.85659817 512.32063307 -132.39786021 512.44202127 -134.94433594 512.55200195 C-135.71519531 512.60098633 -136.48605469 512.6499707 -137.28027344 512.70043945 C-140.72698891 511.91228267 -141.65712646 510.07632765 -143.56933594 507.17700195 C-144.07727051 504.18450928 -144.07727051 504.18450928 -144.08691406 500.82055664 C-144.09952271 499.55443542 -144.11213135 498.28831421 -144.12512207 496.98382568 C-144.11795269 495.60550382 -144.10974634 494.22718702 -144.10058594 492.84887695 C-144.1032858 491.41700986 -144.10717232 489.98514456 -144.11218262 488.55328369 C-144.11807734 485.54714561 -144.10953156 482.54148305 -144.09082031 479.53540039 C-144.06827391 475.73270754 -144.08136704 471.9311488 -144.10458755 468.12849712 C-144.26159535 437.86320872 -139.92687 412.70051062 -118.24902344 389.77075195 C-101.1595947 373.2293807 -80.8239994 366.2418456 -57.56420898 364.47851562 C-47.33623585 363.57628686 -38.43680778 361.00260434 -30.56933594 354.17700195 C-23.7904677 345.86742153 -21.19741184 337.74600337 -20.56933594 327.17700195 C-21.44203125 326.92047852 -22.31472656 326.66395508 -23.21386719 326.3996582 C-45.30134367 318.35148575 -64.75780288 294.98456922 -74.56933594 274.17700195 C-80.83902321 259.82337989 -85.45777261 245.00433669 -84.56933594 229.17700195 C-85.12621094 229.03004883 -85.68308594 228.8830957 -86.25683594 228.73168945 C-95.18436637 226.10771936 -102.37643546 220.96361562 -107.56933594 213.17700195 C-111.21873052 205.53433546 -112.15120224 198.56268539 -112.08691406 190.17895508 C-112.09392334 189.03434311 -112.10093262 187.88973114 -112.1081543 186.71043396 C-112.12563472 182.95945347 -112.11414617 179.20923896 -112.10058594 175.45825195 C-112.10328369 172.83231462 -112.10716846 170.20637827 -112.11218262 167.58044434 C-112.1194315 162.08992347 -112.10994444 156.5996188 -112.09082031 151.10913086 C-112.06905662 144.78839365 -112.07610997 138.46817279 -112.09812593 132.14744806 C-112.11856224 126.03222549 -112.1162759 119.91722931 -112.104599 113.80198669 C-112.10194164 111.21536689 -112.10516635 108.62873379 -112.11451721 106.04212952 C-112.12474142 102.41942053 -112.10909806 98.79768577 -112.08691406 95.17504883 C-112.09501099 94.11914047 -112.10310791 93.06323212 -112.1114502 91.97532654 C-111.99211832 81.39021601 -108.94080733 71.9433736 -101.56933594 64.17700195 C-95.80091744 58.67897807 -87.879439 53.17700195 -79.56933594 53.17700195 C-79.31023437 52.30301758 -79.05113281 51.4290332 -78.78417969 50.52856445 C-71.66355697 30.88388827 -51.86309025 15.58790459 -33.63134766 7.04956055 C-27.4962264 4.45342943 -21.02363849 2.77344834 -14.56933594 1.17700195 C-13.86580994 0.99688065 -13.16228394 0.81675934 -12.43743896 0.63117981 C-8.29071369 -0.02547401 -4.19243577 0.01252923 0 0 Z M-57.93652344 128.0793457 C-67.77041392 140.71283658 -67.88177311 155.43422 -67.83496094 170.7199707 C-67.83631308 172.29877278 -67.83825814 173.87757445 -67.84075928 175.45637512 C-67.84368908 178.75009157 -67.8394855 182.04369873 -67.83007812 185.33740234 C-67.81873219 189.50784449 -67.82522592 193.67802769 -67.83722305 197.8484602 C-67.8445406 201.10634722 -67.84210826 204.36417554 -67.83696747 207.62206459 C-67.83565565 209.15706731 -67.83718943 210.69207579 -67.84192657 212.22707176 C-67.86134417 220.28968194 -67.6016629 228.23280254 -66.68554688 236.24853516 C-66.60915104 236.92546763 -66.5327552 237.60240011 -66.45404434 238.2998457 C-63.9578109 258.10701886 -54.44449126 275.29254208 -41.56933594 290.17700195 C-40.98667969 290.86149414 -40.40402344 291.54598633 -39.80371094 292.2512207 C-23.06005023 310.39018647 2.24418919 319.9953957 26.44238281 321.3449707 C52.71361163 321.5367315 75.74112121 312.20858555 95.43066406 295.17700195 C96.11515625 294.5943457 96.79964844 294.01168945 97.50488281 293.41137695 C113.05057976 279.06150285 123.21182217 257.07666233 125.55078125 236.24072266 C125.63415615 235.5093147 125.71753105 234.77790674 125.80343246 234.02433491 C126.64986662 226.00680876 126.72114505 218.02414807 126.69628906 209.9699707 C126.69764244 208.38633668 126.69958851 206.80270307 126.7020874 205.21907043 C126.70500281 201.93425457 126.70085568 198.64954894 126.69140625 195.36474609 C126.67996631 191.18835101 126.68662271 187.01221185 126.69855118 182.83582592 C126.70582739 179.57815165 126.70345641 176.32053669 126.69829559 173.06286049 C126.69697743 171.52372519 126.69854116 169.9845842 126.7032547 168.44545555 C126.74157389 152.43868839 125.72196917 137.77021892 114.43066406 125.36450195 C106.93865648 118.35749656 96.66354456 113.07915849 86.31614685 113.02983093 C85.28318985 113.02267563 84.25023285 113.01552032 83.18597412 113.00814819 C82.05814514 113.00545929 80.93031616 113.00277039 79.76831055 113 C78.57595291 112.9934288 77.38359528 112.9868576 76.15510559 112.98008728 C72.20399615 112.96035695 68.25290004 112.94868568 64.30175781 112.9387207 C62.937475 112.93467075 61.57319239 112.93055376 60.20890999 112.92637062 C53.7947319 112.9073249 47.38056524 112.89309542 40.96636432 112.88475865 C33.58422257 112.87500342 26.20238203 112.84872657 18.8203463 112.80825776 C13.10124262 112.7779915 7.38222475 112.76327968 1.6630426 112.75997764 C-1.74619842 112.75763812 -5.15511747 112.74882331 -8.56427193 112.72351646 C-12.37682949 112.69908287 -16.18860827 112.70009868 -20.0012207 112.70703125 C-21.11488007 112.69422119 -22.22853943 112.68141113 -23.37594604 112.66821289 C-36.89101745 112.75736133 -48.64448931 118.24707703 -57.93652344 128.0793457 Z M-65.44433594 442.55200195 C-67.42255896 447.16785568 -68.01146615 450.50266567 -66.44433594 455.30200195 C-64.55692028 459.73700555 -62.20928077 462.05988845 -57.71386719 463.9621582 C-53.84831889 465.2107976 -51.87719256 465.26570641 -47.88183594 464.11450195 C-43.45180661 461.52335272 -40.22105361 459.13215497 -38.56933594 454.17700195 C-38.18695264 449.51192573 -38.08997414 447.13572554 -40.19433594 442.92700195 C-43.9557354 438.57169731 -46.71325552 436.4126947 -52.50683594 435.67700195 C-57.97314697 435.9806859 -62.0200931 438.21462769 -65.44433594 442.55200195 Z " fill="currentColor" transform="translate(226.5693359375,-0.177001953125)"/>
<path d="M0 0 C2.16158405 2.35088774 3.99922707 4.85537441 5.8984375 7.421875 C12.64008653 15.69229946 22.46498803 18.90807176 32.703125 20.1796875 C36.16956198 21.41770071 37.10072713 22.8199999 39 26 C39.55558331 29.73897547 39.46508698 33.43433333 39.390625 37.20703125 C39.38496521 38.28756271 39.37930542 39.36809418 39.37347412 40.48136902 C39.35112043 43.92553389 39.30092391 47.36865065 39.25 50.8125 C39.22993379 53.15037558 39.21168323 55.4882675 39.1953125 57.82617188 C39.15125895 63.55113761 39.08435621 69.27549392 39 75 C40.09401123 75.1431665 41.18802246 75.28633301 42.31518555 75.43383789 C52.90981331 77.06167475 61.56206735 83.67508709 68 92 C72.54595703 99.31500599 76.08567882 106.64266935 76.17700195 115.34765625 C76.19625481 116.94951782 76.19625481 116.94951782 76.21589661 118.58374023 C76.22328354 119.73173096 76.23067047 120.87972168 76.23828125 122.0625 C76.246353 123.24593994 76.25442474 124.42937988 76.26274109 125.64868164 C76.27656449 128.15021302 76.28729443 130.65176312 76.29516602 133.15332031 C76.31243414 136.98538526 76.35634368 140.81659968 76.40039062 144.6484375 C76.41051296 147.07811866 76.4190305 149.50780714 76.42578125 151.9375 C76.45204338 153.65948608 76.45204338 153.65948608 76.47883606 155.41625977 C76.47591049 156.48416748 76.47298492 157.5520752 76.4699707 158.65234375 C76.47583694 159.59070068 76.48170319 160.52905762 76.48774719 161.49584961 C75.85271699 164.75616799 74.55175089 165.9446439 72 168 C68.93542441 168.73377162 66.09181106 168.56834762 63 168 C59.70688363 165.69481854 58.74155427 163.84542611 58 160 C57.91301943 158.46526807 57.87491816 156.92733122 57.87402344 155.39013672 C57.87021667 154.48174042 57.86640991 153.57334412 57.86248779 152.63742065 C57.86146057 151.66136871 57.86043335 150.68531677 57.859375 149.6796875 C57.8410396 147.5963433 57.82146862 145.51300967 57.80078125 143.4296875 C57.77189345 140.15802218 57.7500018 136.88703525 57.74951172 133.61523438 C57.74615521 130.44861223 57.71146963 127.28353837 57.671875 124.1171875 C57.6789447 123.15328094 57.6860144 122.18937439 57.69329834 121.19625854 C57.55396236 113.32514363 55.40493377 106.76584927 50.05633545 100.85031128 C44.04179492 95.09653376 38.31781947 92.89731651 30.0625 92.5625 C21.8445407 92.80055172 15.5479484 95.77399948 9.50390625 101.28515625 C5.24535142 106.14101487 2.89241661 112.25430728 2.84228516 118.66748047 C2.82689194 120.08442703 2.82689194 120.08442703 2.81118774 121.52999878 C2.80388641 122.54877106 2.79658508 123.56754333 2.7890625 124.6171875 C2.76099656 126.77214305 2.73233211 128.92709087 2.703125 131.08203125 C2.66184454 134.48128058 2.6249583 137.88038522 2.59863281 141.27978516 C2.57103052 144.55922258 2.52516139 147.83800302 2.4765625 151.1171875 C2.47330963 152.13191132 2.47005676 153.14663513 2.46670532 154.19210815 C2.31165282 163.0923105 2.31165282 163.0923105 -1 167 C-3.28726223 168.14363112 -4.82852427 168.26501932 -7.375 168.375 C-8.14585937 168.42398438 -8.91671875 168.47296875 -9.7109375 168.5234375 C-12 168 -12 168 -14.10766602 166.17797852 C-16.93329862 161.43262183 -16.59162423 157.05758172 -16.56640625 151.62890625 C-16.57260483 150.51499008 -16.57880341 149.40107391 -16.58518982 148.25340271 C-16.59229002 145.89396029 -16.58911057 143.53446778 -16.57641602 141.17504883 C-16.56266743 137.60596351 -16.59648109 134.03956236 -16.63476562 130.47070312 C-16.69551268 112.68273246 -14.98762863 99.28521024 -2.125 86.07421875 C4.78210089 79.57096045 11.62089343 76.33987237 21 75 C21 62.46 21 49.92 21 37 C18.03 36.34 15.06 35.68 12 35 C0.8980995 30.33691305 -8.29887088 22.69607609 -14 12 C-14.80524593 7.53454528 -14.59422354 5.94256147 -12.1875 2.125 C-8.29278043 -1.65844187 -5.02485112 -1.56511756 0 0 Z " fill="currentColor" transform="translate(308,344)"/>
<path d="M0 0 C18.02784329 9.18335626 31.15319015 28.03031423 37.34765625 46.91796875 C39.5819614 54.51780955 41.10867745 61.7198346 41.17700195 69.66040039 C41.19625481 71.61756737 41.19625481 71.61756737 41.21589661 73.61427307 C41.22406173 75.0253969 41.2315059 76.43652506 41.23828125 77.84765625 C41.24235678 78.56406218 41.2464323 79.2804681 41.25063133 80.0185833 C41.27140791 83.80445941 41.28575053 87.5903001 41.29516602 91.3762207 C41.30626514 95.27914274 41.34072838 99.18150013 41.38033772 103.08422184 C41.40648889 106.09456941 41.41485603 109.1047813 41.41844749 112.11523247 C41.42331058 113.55413095 41.43491683 114.99302349 41.45348549 116.43181038 C41.47785966 118.44406485 41.47449382 120.45659713 41.4699707 122.46899414 C41.47583694 123.61227676 41.48170319 124.75555939 41.48774719 125.93348694 C40.89341371 129.67011818 39.63725887 131.33545947 37 134 C33.93375771 134.86912854 31.11119237 134.6348205 28 134 C25.49839182 132.12379387 24.38054348 130.76108697 23 128 C22.90029957 126.07793094 22.86441582 124.15242615 22.8581543 122.2277832 C22.85111984 121.01504227 22.84408539 119.80230133 22.83683777 118.55281067 C22.83502188 117.90167612 22.83320599 117.25054157 22.83133507 116.57967567 C22.82414443 114.52959219 22.80845073 112.47974464 22.78999329 110.42973328 C22.73770408 104.59926967 22.68974705 98.76892445 22.67407227 92.93823242 C22.66385101 89.36946725 22.63416227 85.80128163 22.59275246 82.23274803 C22.57479503 80.23973981 22.57706319 78.24658122 22.58000183 76.25349426 C22.31583247 56.17008886 15.12090909 38.4474041 1 24 C-1.80760752 21.47204932 -4.74610979 19.13116342 -7.75 16.83984375 C-10.63600257 14.4799354 -11.88853505 12.85456464 -12.375 9.125 C-11.91377729 5.28147742 -10.66559892 3.74399889 -8 1 C-5.00818583 -0.49590709 -3.3583794 -0.42743011 0 0 Z " fill="currentColor" transform="translate(388,378)"/>
</svg>
