<?xml version="1.0" encoding="UTF-8"?>
<svg version="1.1" xmlns="http://www.w3.org/2000/svg" width="512" height="512">
<path d="M0 0 C2.14836469 0.74309874 4.30874767 1.43626128 6.47460938 2.12646484 C16.3065005 5.37886704 24.61079103 9.49707615 29.76367188 18.92724609 C34.45492569 29.24366073 31.34372755 41.06475533 29.38867188 51.73974609 C29.22729736 52.64789063 29.06592285 53.55603516 28.8996582 54.49169922 C28.02199302 59.06697082 27.25106678 63.02029154 24.26367188 66.73974609 C20.62474942 68.28965751 18.38486608 69.02004465 14.51367188 68.05224609 C12.28500894 66.75219272 10.88295685 65.73568896 9.26367188 63.73974609 C8.06315194 56.84056576 9.85792124 49.65793959 11.32617188 42.92724609 C11.72185757 41.11016516 12.10889291 39.29117419 12.48632812 37.47021484 C12.65914307 36.68026123 12.83195801 35.89030762 13.01000977 35.07641602 C13.40658078 31.42330614 12.84197092 28.78956306 11.07104492 25.57470703 C8.69903716 23.16649275 6.54573276 22.45084192 3.34570312 21.38037109 C2.17330078 20.98720703 1.00089844 20.59404297 -0.20703125 20.18896484 C-1.43357422 19.79322266 -2.66011719 19.39748047 -3.92382812 18.98974609 C-5.13103516 18.57853516 -6.33824219 18.16732422 -7.58203125 17.74365234 C-16.49640423 14.69181182 -16.49640423 14.69181182 -25.73632812 14.73974609 C-30.61864597 18.67915649 -32.78984285 23.37021919 -35.31054688 28.95068359 C-35.92540703 30.28022568 -35.92540703 30.28022568 -36.5526886 31.6366272 C-37.41414065 33.50518383 -38.27026057 35.3762069 -39.12133789 37.24951172 C-40.41879347 40.1036708 -41.73328157 42.94948001 -43.05078125 45.79443359 C-43.88838504 47.61688399 -44.72500656 49.43978623 -45.56054688 51.26318359 C-45.95014084 52.10819427 -46.3397348 52.95320496 -46.74113464 53.82382202 C-48.81759469 58.41001638 -50.49575577 62.85860413 -51.73632812 67.73974609 C-51.04300888 67.96667648 -50.34968964 68.19360687 -49.63536072 68.42741394 C-43.0323508 70.58872608 -36.42947049 72.7504338 -29.82672787 74.91256237 C-26.43395193 76.02354319 -23.04112976 77.13438237 -19.64819336 78.24487305 C-18.98998281 78.46031706 -18.33177227 78.67576107 -17.65361595 78.89773369 C-16.33680563 79.32874512 -15.01998365 79.75972095 -13.7031498 80.19066048 C-10.49066226 81.24223387 -7.27867704 82.29529825 -4.06771851 83.35153198 C3.59176093 85.87041051 3.59176093 85.87041051 11.27099609 88.328125 C11.96664169 88.55067459 12.66228729 88.77322418 13.37901306 89.0025177 C15.0669863 89.54147441 16.75780873 90.07148835 18.44897461 90.6003418 C25.76331489 93.56122532 31.76939781 98.86537247 35.37304688 105.90771484 C39.5176441 116.95345744 36.4512317 126.62105017 32.76367188 137.36474609 C32.328713 138.66767658 31.89510892 139.97106016 31.46289062 141.27490234 C30.40967526 144.43454845 29.34306416 147.58896683 28.26367188 150.73974609 C29.04379639 151.03526367 29.8239209 151.33078125 30.62768555 151.63525391 C41.13984977 156.03990621 47.35264721 169.06966716 51.65820312 178.93505859 C53.56491749 182.26600973 55.30561222 183.45782925 58.57617188 185.42724609 C74.33777168 195.44874404 89.62671147 208.06348544 101.26367188 222.73974609 C102.02808594 223.67818359 102.7925 224.61662109 103.58007812 225.58349609 C119.38382284 245.2946426 130.73959904 268.36072194 137.01367188 292.80224609 C137.2124292 293.56827148 137.41118652 294.33429688 137.6159668 295.12353516 C140.69178023 307.75375065 141.64755879 320.46025389 141.57617188 333.42724609 C141.57343765 334.469151 141.57343765 334.469151 141.57064819 335.53210449 C141.48796386 354.35181315 138.14214326 371.61420025 133.26367188 389.73974609 C133.98554688 389.82095703 134.70742188 389.90216797 135.45117188 389.98583984 C142.70705005 391.9308183 148.55279649 399.37984196 152.32617188 405.62255859 C155.11377356 411.91789239 155.57160151 417.60920511 155.56445312 424.40771484 C155.56873825 425.32378006 155.57302338 426.23984528 155.57743835 427.18367004 C155.5831592 429.11584653 155.58369855 431.04804455 155.5793457 432.98022461 C155.57620003 435.90110092 155.59962359 438.82094887 155.625 441.74169922 C155.69151639 460.92465824 152.14797834 477.5054151 138.26367188 491.73974609 C124.61348121 503.69082212 111.47156437 508.05330224 93.62652588 508.0004425 C92.24223874 508.00346611 90.85795326 508.00735664 89.47367072 508.01203507 C85.68395509 508.02229711 81.89433426 508.02013783 78.10461092 508.01585448 C74.01176724 508.01338394 69.91894619 508.02240556 65.82611084 508.02989197 C57.81271107 508.04263256 49.79934482 508.0444334 41.78593662 508.0420917 C35.27020792 508.04030743 28.75448939 508.04206055 22.2387619 508.04631615 C21.31078912 508.04691134 20.38281634 508.04750652 19.42672317 508.04811975 C17.54141221 508.04933153 15.65610126 508.05054566 13.77079031 508.05176213 C-3.90517695 508.06263551 -21.58112513 508.06047631 -39.25709346 508.05437728 C-55.4148183 508.04921009 -71.57248282 508.0604587 -87.73019573 508.0794755 C-104.33265484 508.09886545 -120.93508543 508.10710775 -137.53755593 508.10335225 C-146.85381063 508.10144173 -156.17001401 508.10391305 -165.48625946 508.11806679 C-173.41868922 508.12999641 -181.35103609 508.13136787 -189.28346702 508.11927662 C-193.32749526 508.11339861 -197.37137198 508.11225846 -201.41539001 508.12427902 C-205.12404299 508.13517419 -208.83241861 508.1319917 -212.54105881 508.11801734 C-214.50420573 508.11413982 -216.46736513 508.12488786 -218.43048263 508.13631421 C-236.30329511 508.02802149 -251.43307988 502.09268358 -264.10742188 489.51318359 C-273.28291399 479.83324391 -279.1370854 471.35430901 -278.93945312 457.76708984 C-278.42979045 450.17115579 -275.16731958 445.56906061 -270.35742188 439.81787109 C-263.03948221 434.01586826 -255.03131385 433.15421416 -245.97550964 433.2250824 C-244.83118212 433.21813687 -243.68685459 433.21119134 -242.50785047 433.20403534 C-238.69472943 433.1858201 -234.88223437 433.1960148 -231.0690918 433.20629883 C-228.32698039 433.20142911 -225.58489906 433.19062833 -222.84280396 433.18019104 C-216.18221436 433.15860891 -209.52179599 433.15866228 -202.86118295 433.16681658 C-197.44859467 433.17312701 -192.03605617 433.17197004 -186.6234684 433.16554451 C-185.85194113 433.16464285 -185.08041385 433.1637412 -184.28550697 433.16281222 C-182.71802795 433.16096097 -181.15054895 433.15909841 -179.58306996 433.15722466 C-164.90455047 433.14066811 -150.22612728 433.14934899 -135.5476136 433.16621024 C-122.11733442 433.18092378 -108.68727862 433.16625184 -95.25702818 433.13744008 C-81.45808162 433.10805806 -67.65923821 433.09706911 -53.86026174 433.10662228 C-52.30021085 433.10764482 -50.74015995 433.10863943 -49.18010902 433.10960579 C-48.4125757 433.11008218 -47.64504237 433.11055857 -46.85425046 433.1110494 C-41.44578994 433.11321411 -36.03742711 433.10340713 -30.62898827 433.08883476 C-24.04167038 433.07133283 -17.45463786 433.07139861 -10.86733129 433.09418642 C-7.50643398 433.10534556 -4.14645472 433.10576068 -0.78551292 433.08988571 C2.85606699 433.07404216 6.49625827 433.0888261 10.13777161 433.11155701 C11.20196078 433.09972128 12.26614995 433.08788555 13.36258727 433.07569116 C20.51268867 433.16672618 20.51268867 433.16672618 24.419734 436.1479044 C27.26744378 440.15064931 26.95255484 441.91756531 26.26367188 446.73974609 C24.39352093 449.17094232 22.98228842 450.38043782 20.26367188 451.73974609 C18.75704651 451.83352353 17.24630691 451.86453967 15.73676586 451.86444473 C14.77793348 451.86683568 13.81910109 451.86922663 12.83121318 451.87169003 C11.77043868 451.86925754 10.70966418 451.86682505 9.616745 451.86431885 C7.93500812 451.86643407 7.93500812 451.86643407 6.21929675 451.86859202 C2.43679419 451.87226188 -1.34567128 451.86890128 -5.12817383 451.86572266 C-7.82968246 451.8665379 -10.53118895 451.86893305 -13.23269653 451.87138367 C-18.3065145 451.87547769 -23.38032773 451.87771338 -28.45414736 451.87779966 C-38.42422093 451.87800218 -48.39424575 451.89044966 -58.36430359 451.90740967 C-59.93288351 451.91001551 -61.50146344 451.91261432 -63.07004339 451.91520619 C-65.44745195 451.91914471 -67.82486049 451.92309121 -70.20226899 451.92706741 C-79.16991894 451.94202004 -88.13757039 451.95564134 -97.10522461 451.96777344 C-98.33518937 451.96944378 -98.33518937 451.96944378 -99.5900019 451.97114787 C-112.87844898 451.98872375 -126.16686561 451.99159196 -139.45532236 451.98992303 C-153.09132183 451.9886446 -166.7272078 452.00636431 -180.36316365 452.040941 C-188.77776114 452.06161076 -197.19208704 452.06691363 -205.60669901 452.05261269 C-211.37273143 452.04416218 -217.13855246 452.05386248 -222.90454022 452.0779222 C-226.2329751 452.09124844 -229.56048187 452.09367341 -232.88897896 452.07980156 C-236.49596521 452.06601338 -240.10155109 452.08272975 -243.70845032 452.10723877 C-244.76253265 452.09588339 -245.81661499 452.08452801 -246.90263921 452.07282853 C-251.67925854 452.13618669 -253.97635509 452.16784566 -257.88260174 455.1074028 C-259.87820214 457.60544641 -259.87820214 457.60544641 -260.42382812 460.48974609 C-258.60372467 469.09387149 -251.38986279 476.40458213 -244.41992188 481.39990234 C-234.28598966 487.85453522 -224.92289886 489.184493 -213.04176331 489.12742615 C-211.67565901 489.1316059 -210.3095582 489.13708692 -208.94346374 489.14374596 C-205.21330299 489.15813518 -201.48336441 489.15397645 -197.75319183 489.14657915 C-193.72106054 489.14183356 -189.68897636 489.15436954 -185.65686035 489.16459656 C-177.76704775 489.18176236 -169.87731487 489.18262923 -161.98748846 489.17738365 C-155.57286249 489.1733368 -149.15826003 489.17479163 -142.74363518 489.18013191 C-141.82952146 489.18088033 -140.91540774 489.18162876 -139.9735936 489.18239986 C-138.11638498 489.18393138 -136.25917637 489.18546973 -134.40196776 489.18701483 C-116.99927231 489.20073169 -99.59662187 489.19530776 -82.19392746 489.18382961 C-66.28459481 489.17389676 -50.37537846 489.18684026 -34.46606375 489.2107638 C-18.11553252 489.23516491 -1.76505544 489.24476027 14.58549362 489.23811108 C23.75917796 489.23462128 32.93277286 489.2368352 42.10644341 489.25436211 C49.91517726 489.26909667 57.72375868 489.26970308 65.53248959 489.2522912 C69.51366615 489.24378938 73.49457056 489.24161146 77.4757328 489.25694275 C81.12573799 489.27082438 84.77523875 489.26598277 88.42521501 489.24670351 C90.35918363 489.24118807 92.29317815 489.25518597 94.22709745 489.27005762 C106.19627075 489.16954844 116.24547681 485.75762942 125.26367188 477.73974609 C135.54058014 466.38002182 136.91162239 453.56709032 136.73022461 438.92871094 C136.70098385 436.34815281 136.70971144 433.76962168 136.72265625 431.18896484 C136.71642496 429.53140287 136.70803881 427.87384727 136.69726562 426.21630859 C136.70166908 425.07242172 136.70166908 425.07242172 136.7061615 423.90542603 C136.5957796 417.62579568 135.01986765 413.67606451 130.82617188 409.05224609 C127.05163948 406.06884044 122.6045426 405.41080784 117.97070312 404.51318359 C115.05215517 403.67931275 113.94250068 403.24431806 112.26367188 400.73974609 C110.15614293 394.79614473 112.59726879 389.61519405 114.51367188 383.92724609 C117.62204874 374.24215778 119.88370851 364.80795881 121.26367188 354.73974609 C121.39386719 353.89412109 121.5240625 353.04849609 121.65820312 352.17724609 C126.57290464 314.43233848 115.36660577 274.17756193 92.95117188 243.61474609 C91.40880529 241.64051687 89.84501254 239.6828975 88.26367188 237.73974609 C87.80589355 237.17513672 87.34811523 236.61052734 86.87646484 236.02880859 C77.21412708 224.19236407 66.13222513 211.67402272 52.26367188 204.73974609 C52.18117188 205.85349609 52.09867187 206.96724609 52.01367188 208.11474609 C50.25938403 221.12381571 42.1591343 232.36225683 31.88867188 240.23974609 C18.61271445 249.0779537 4.03117126 252.36766266 -11.73632812 249.73974609 C-25.5267071 246.50322858 -38.01900712 239.39326813 -45.89648438 227.47021484 C-51.9871287 217.43864555 -55.31247614 208.26404491 -55.17382812 196.42724609 C-55.16246826 195.05475708 -55.16246826 195.05475708 -55.15087891 193.65454102 C-54.813281 179.69351227 -49.76745564 168.30383253 -40.73632812 157.73974609 C-34.92600201 152.50469979 -29.10338684 147.35266661 -21.17382812 146.23974609 C-17.73632812 146.73974609 -17.73632812 146.73974609 -14.79882812 148.73974609 C-12.50032258 152.08302688 -11.98327209 153.84736245 -12.25195312 157.81787109 C-13.3539221 162.19019962 -16.92493293 164.23487797 -20.54882812 166.48974609 C-27.99538029 171.74613586 -33.81126125 178.70396347 -35.73632812 187.73974609 C-36.92989279 199.96135094 -35.35914416 210.1217198 -27.49804688 219.92333984 C-20.729991 226.90149058 -11.72109681 230.95891997 -2.08398438 231.73583984 C7.35589439 231.7515468 15.19406783 227.96585776 23.01367188 222.98974609 C30.51927176 215.48414621 34.3146905 206.91194755 34.70117188 196.36474609 C34.43643162 186.50029416 31.12286544 177.89784947 24.26367188 170.73974609 C20.69662274 167.66494974 16.83676806 165.10406436 12.88867188 162.55224609 C10.26367187 160.73974609 10.26367187 160.73974609 8.26367188 157.73974609 C7.83527621 152.48645008 8.7592474 148.46504685 10.48632812 143.52099609 C10.94681413 142.16299082 11.40709437 140.80491577 11.8671875 139.44677734 C12.5954879 137.33875913 13.32868338 135.23258337 14.06665039 133.12792969 C14.78192136 131.07562093 15.47856619 129.01765379 16.17382812 126.95849609 C16.81010132 125.1322168 16.81010132 125.1322168 17.45922852 123.26904297 C18.37513497 119.25072923 18.39687666 116.70346937 17.26367188 112.73974609 C13.64212738 109.23435877 9.83893471 107.62048531 5.109375 106.14599609 C4.40776245 105.91775146 3.7061499 105.68950684 2.98327637 105.4543457 C0.67367375 104.70583768 -1.64050682 103.97273048 -3.95507812 103.23974609 C-5.57618261 102.71787687 -7.19698703 102.19507473 -8.81750488 101.67138672 C-13.08379536 100.29556548 -17.3541674 98.93286394 -21.62548828 97.57275391 C-25.93070619 96.19914221 -30.23170667 94.81245741 -34.53320312 93.42724609 C-46.13907305 89.69344662 -46.13907305 89.69344662 -57.75952148 86.00537109 C-60.34697671 85.1886467 -62.91682277 84.34156246 -65.48852539 83.47412109 C-66.62797607 83.09771484 -67.76742676 82.72130859 -68.94140625 82.33349609 C-70.41293152 81.83366211 -70.41293152 81.83366211 -71.91418457 81.32373047 C-75.19958088 80.6438855 -77.49815565 80.91715429 -80.73632812 81.73974609 C-84.37662047 84.50118263 -85.58997094 87.33061764 -86.97851562 91.61474609 C-87.17896484 92.22185425 -87.37941406 92.8289624 -87.5859375 93.45446777 C-88.27288688 95.54589576 -88.94189086 97.64265215 -89.61132812 99.73974609 C-90.11440332 101.28499187 -90.61851694 102.82989987 -91.12353516 104.37451172 C-92.30416703 107.99513377 -93.47587562 111.61851818 -94.64257812 115.24365234 C-96.16161129 119.96208465 -97.68846947 124.6779301 -99.22070312 129.39208984 C-99.43845366 130.06205333 -99.6562042 130.73201681 -99.88055325 131.42228222 C-100.33165018 132.81009734 -100.78276091 134.19790798 -101.23388481 135.58571434 C-105.51868317 148.76895938 -109.78174111 161.95908967 -114.02924919 175.15439415 C-116.74131487 183.57874961 -119.46901816 191.99744357 -122.2322998 200.40518188 C-123.58183115 204.51560444 -124.92063274 208.62946773 -126.25714111 212.74414062 C-126.86175675 214.59627168 -127.47147104 216.44674714 -128.08660889 218.29541016 C-128.91946257 220.80005211 -129.73427372 223.30987721 -130.54492188 225.82177734 C-130.78642471 226.53207596 -131.02792755 227.24237457 -131.27674866 227.97419739 C-132.73690013 232.58316441 -133.01109061 236.06140638 -131.73632812 240.73974609 C-128.80254141 244.34848939 -126.05111571 245.61641351 -121.66455078 247.01049805 C-120.43451324 247.40803787 -119.20447571 247.8055777 -117.93716431 248.21516418 C-116.59165099 248.63636753 -115.2460575 249.05731483 -113.90039062 249.47802734 C-112.5011534 249.9252978 -111.10226384 250.37365715 -109.70370483 250.82304382 C-106.01003454 252.0066613 -102.31183521 253.17545391 -98.61248779 254.34118652 C-94.93220866 255.50365302 -91.25629925 256.67975683 -87.58007812 257.85498047 C-83.29102694 259.22554007 -79.00106035 260.59286045 -74.70611572 261.94485474 C-68.45572115 263.91300266 -62.21530193 265.89900524 -56.00878906 268.00292969 C-55.00367279 268.33890671 -53.99855652 268.67488373 -52.96298218 269.02104187 C-51.15404618 269.62813582 -49.34918403 270.24759706 -47.54995728 270.88288879 C-42.15007146 272.67908885 -38.3226954 273.01925146 -32.73632812 271.73974609 C-30.3881679 269.56739381 -30.3881679 269.56739381 -28.86132812 266.73974609 C-25.83857761 261.79087084 -25.83857761 261.79087084 -23.73632812 260.73974609 C-19.75073846 260.36374707 -17.41053187 260.37333101 -13.86132812 262.30224609 C-10.95304601 265.63821675 -10.5931038 267.299792 -10.73632812 271.73974609 C-13.36472256 279.8733846 -18.28099596 285.55082541 -25.60742188 289.83349609 C-38.94533806 295.82308008 -53.42535053 289.09341368 -66.23632812 284.80224609 C-68.33951957 284.11227887 -70.44328371 283.42405499 -72.54760742 282.73754883 C-76.70122344 281.37995444 -80.85176354 280.0136002 -84.99951172 278.63818359 C-91.30027905 276.54971308 -97.61264216 274.49861426 -103.93164062 272.46606445 C-106.28602033 271.70855041 -108.63897026 270.9465733 -110.99023438 270.17944336 C-112.00601563 269.85000732 -113.02179688 269.52057129 -114.06835938 269.18115234 C-114.93178955 268.89957275 -115.79521973 268.61799316 -116.68481445 268.32788086 C-118.70106172 267.64788535 -118.70106172 267.64788535 -120.73632812 267.73974609 C-122.98950961 273.96913019 -123.3699157 279.43147626 -120.98242188 285.72802734 C-118.20023072 291.16435901 -114.13544303 293.77865265 -108.58007812 296.00415039 C-106.92492187 296.52875854 -106.92492187 296.52875854 -105.23632812 297.06396484 C-104.01945313 297.45261719 -102.80257812 297.84126953 -101.54882812 298.24169922 C-100.29070312 298.63292969 -99.03257812 299.02416016 -97.73632812 299.42724609 C-96.46524803 299.83337564 -95.19441229 300.24027079 -93.92382812 300.64794922 C-83.24602712 304.1297037 -83.24602712 304.1297037 -72.17382812 304.05224609 C-67.14184363 303.5045471 -67.14184363 303.5045471 -63.61132812 305.55224609 C-61.22241909 308.33930664 -60.78043906 309.35009952 -60.36132812 313.05224609 C-60.73632812 316.73974609 -60.73632812 316.73974609 -62.54882812 319.55224609 C-70.03687682 324.69110304 -79.09182575 324.22169757 -87.73632812 322.73974609 C-92.59819038 321.46178153 -97.35529502 319.9597499 -102.1159668 318.34912109 C-104.29229919 317.61694261 -106.47703809 316.91580322 -108.6640625 316.21630859 C-120.58684195 312.30056016 -131.26708102 307.08237829 -137.73632812 295.73974609 C-142.13559549 285.33554404 -142.7659493 276.53829557 -140.13476562 265.70849609 C-139.58795334 263.00660012 -139.64604756 261.28373407 -140.73632812 258.73974609 C-141.47882813 258.16224609 -142.22132813 257.58474609 -142.98632812 256.98974609 C-148.35781928 252.5948897 -151.28638138 246.10394823 -151.99259949 239.2540741 C-152.26815459 230.43807444 -150.02207043 222.90266094 -147.22460938 214.66552734 C-146.74201338 213.20078539 -146.2610546 211.73550316 -145.78160095 210.26972961 C-144.7568152 207.14786992 -143.72124245 204.02989468 -142.67663574 200.91461182 C-141.02995244 196.00370224 -139.40702368 191.08515391 -137.78808594 186.16503906 C-136.1174705 181.09171471 -134.44515017 176.01898432 -132.76412964 170.94909668 C-128.99752694 159.58851575 -125.27920763 148.21335326 -121.60742188 136.82177734 C-121.36649118 136.07437853 -121.12556049 135.32697971 -120.87732887 134.55693245 C-119.69914697 130.90099368 -118.52199213 127.24472545 -117.34555054 123.58822632 C-115.59221279 118.13897611 -113.83516037 112.69092692 -112.0763092 107.24345398 C-111.30968687 104.86907145 -110.54362965 102.49450634 -109.77830505 100.1197052 C-108.76864501 96.99162824 -107.75301304 93.86554579 -106.73632812 90.73974609 C-106.38582397 89.64966248 -106.03531982 88.55957886 -105.67419434 87.4364624 C-105.32828247 86.37429504 -104.98237061 85.31212769 -104.62597656 84.21777344 C-104.31964294 83.27090668 -104.01330933 82.32403992 -103.69769287 81.34848022 C-100.94331949 73.87428495 -96.5609662 68.29003138 -89.48242188 64.54833984 C-83.42123608 61.82602322 -78.30959256 61.33120664 -71.73632812 61.73974609 C-67.45678352 53.38153053 -63.3327524 44.98126599 -59.51757812 36.39990234 C-59.16606689 35.61384613 -58.81455566 34.82778992 -58.45239258 34.01791382 C-57.01344122 30.7985921 -55.57584851 27.57903227 -54.16357422 24.34790039 C-44.64303941 2.6198279 -44.64303941 2.6198279 -34.67382812 -2.82275391 C-23.19858061 -7.08137012 -11.05117283 -3.84862929 0 0 Z " fill="currentColor" transform="translate(317.736328125,4.26025390625)"/>
<path d="M0 0 C7.40270512 2.12031123 11.37936635 11.02218355 14.984375 17.30078125 C31.29456082 47.00565529 36.38740776 82.28268013 27.15234375 115.1015625 C25.26003055 121.46746151 23.04060935 127.60403254 20.359375 133.67578125 C21.02324219 133.629375 21.68710937 133.58296875 22.37109375 133.53515625 C26.6387388 133.36071236 29.56277093 133.2693506 33.421875 135.23828125 C35.98661 138.46488335 36.359375 140.57341247 36.359375 144.67578125 C34.99509107 147.59924682 33.63186591 149.40329034 31.359375 151.67578125 C28.8638233 151.88488887 26.4702639 151.97686194 23.97265625 151.984375 C22.461585 152.00955383 20.95051738 152.03495155 19.43945312 152.06054688 C17.06096501 152.08917977 14.6825407 152.11319658 12.30395508 152.13208008 C10.0056715 152.15389088 7.7081661 152.19336005 5.41015625 152.234375 C4.70885086 152.23449081 4.00754547 152.23460663 3.2849884 152.23472595 C-2.99896706 152.35913979 -7.72560429 153.77327901 -12.22942257 158.24765587 C-16.31425248 161.69167306 -20.4479064 161.37248893 -25.59169006 161.31069946 C-26.58967556 161.31849942 -27.58766106 161.32629937 -28.61588854 161.33433568 C-31.95792492 161.35426963 -35.29882442 161.33848488 -38.64086914 161.32275391 C-41.03755864 161.32952931 -43.43424294 161.33843201 -45.83091736 161.3493042 C-51.66326982 161.36974323 -57.49526135 161.36674312 -63.32762486 161.35224099 C-68.06764527 161.34094338 -72.80757551 161.33942008 -77.54760551 161.34486008 C-78.2225371 161.34562624 -78.89746869 161.34639241 -79.59285275 161.34718179 C-80.96400292 161.34878043 -82.33515306 161.3504015 -83.70630317 161.35204475 C-96.55881687 161.36629723 -109.41115215 161.34991691 -122.26363658 161.32304291 C-133.29083725 161.30069943 -144.31777477 161.30458896 -155.3449707 161.32763672 C-168.15341236 161.35439493 -180.96169777 161.36492933 -193.77016348 161.3495754 C-195.13592904 161.34798267 -196.50169464 161.34641081 -197.86746025 161.34486008 C-198.53942967 161.3440887 -199.21139909 161.34331732 -199.90373122 161.34252257 C-204.63837935 161.33820598 -209.37292833 161.34549107 -214.10756111 161.35725784 C-220.4795229 161.37168172 -226.85098678 161.36171812 -233.22289467 161.33278656 C-235.5638369 161.32616501 -237.9048209 161.32809153 -240.24574661 161.33909988 C-243.43658144 161.3527237 -246.62581157 161.3356763 -249.81654358 161.31069946 C-250.74727804 161.32185307 -251.6780125 161.33300668 -252.63695103 161.34449828 C-257.10999433 161.27638033 -259.04877069 161.12193951 -262.71947384 158.35484886 C-265.25087103 154.82478607 -265.32509633 152.93471399 -264.640625 148.67578125 C-262.50383215 145.28638569 -261.4631483 143.94995568 -257.640625 142.67578125 C-254.5739754 142.58221986 -251.53025793 142.54726471 -248.46360779 142.55793762 C-247.03701948 142.55688075 -247.03701948 142.55688075 -245.58161122 142.55580252 C-242.38048005 142.55448945 -239.17939765 142.56017713 -235.97827148 142.56567383 C-233.68866475 142.56591587 -231.39905791 142.56563902 -229.10945129 142.56488037 C-224.17071131 142.56377256 -219.23198062 142.56521101 -214.2932415 142.56824684 C-206.48128695 142.57187354 -198.66938102 142.56275195 -190.85743713 142.55046082 C-188.88077369 142.54742792 -188.88077369 142.54742792 -186.86417764 142.54433376 C-184.16903107 142.54017754 -181.47388459 142.53596237 -178.77873814 142.53172624 C-171.84850587 142.52092244 -164.91827268 142.51111847 -157.98803711 142.50268555 C-156.94481074 142.50140867 -156.94481074 142.50140867 -155.88050909 142.500106 C-144.62274247 142.48689991 -133.36504678 142.49189548 -122.10728096 142.50275711 C-110.54250917 142.51340082 -98.97794623 142.50075114 -87.41321045 142.46867484 C-80.92270188 142.45152116 -74.43258601 142.44522913 -67.94207573 142.46479225 C-61.83272611 142.48303868 -55.72405237 142.47337829 -49.61475945 142.4425354 C-47.37589531 142.43617638 -45.13697481 142.44000622 -42.8981514 142.45493126 C-28.28086981 143.00455814 -28.28086981 143.00455814 -15.38719273 137.0417738 C-12.76765265 134.99302861 -10.13423886 134.86546021 -6.890625 134.55078125 C-3.11409933 133.77065388 -1.22653779 133.34012331 1.34375 130.42578125 C3.02808493 127.23075416 4.22567265 124.10633511 5.359375 120.67578125 C5.58560547 120.01642578 5.81183594 119.35707031 6.04492188 118.67773438 C15.64610433 90.35291633 14.6856871 60.14229071 1.66015625 33.00390625 C-1.0566641 27.80226369 -4.02725812 23.09345303 -7.578125 18.42578125 C-10.46073566 14.43946831 -11.58895297 11.52981467 -11.1171875 6.59375 C-10.640625 4.67578125 -10.640625 4.67578125 -9.203125 2.11328125 C-5.99065423 0.3111635 -3.67469202 -0.21015396 0 0 Z " fill="currentColor" transform="translate(378.640625,257.32421875)"/>
<path d="M0 0 C1.28455078 -0.02900391 2.56910156 -0.05800781 3.89257812 -0.08789062 C5.13072266 -0.09626953 6.36886719 -0.10464844 7.64453125 -0.11328125 C9.3457312 -0.13515503 9.3457312 -0.13515503 11.08129883 -0.1574707 C14.85296461 0.41318532 16.48345982 1.67773916 19.1875 4.3125 C20.75685594 7.45121188 20.53951103 9.85105822 20.1875 13.3125 C17.6106189 16.62194128 16.10389351 18.12963533 11.9453125 18.95947266 C10.74648438 18.9651123 9.54765625 18.97075195 8.3125 18.9765625 C6.99765625 18.98300781 5.6828125 18.98945313 4.328125 18.99609375 C3.64814453 18.98562012 2.96816406 18.97514648 2.26757812 18.96435547 C0.19215319 18.93756008 -1.87786676 18.96412887 -3.953125 18.99609375 C-5.92539062 18.98642578 -5.92539062 18.98642578 -7.9375 18.9765625 C-9.73574219 18.96810303 -9.73574219 18.96810303 -11.5703125 18.95947266 C-15.72480712 18.13045076 -17.22350416 16.60458353 -19.8125 13.3125 C-20.50401325 9.00975091 -20.32807405 7.10304688 -17.9375 3.4375 C-13.10983227 -1.39016773 -6.44762431 0.04809267 0 0 Z " fill="currentColor" transform="translate(404.8125,430.6875)"/>
</svg>
