<?xml version="1.0" encoding="UTF-8" standalone="no"?>
<!-- Created with Inkscape (http://www.inkscape.org/) -->

<svg
   version="1.1"
   id="svg1341"
   xml:space="preserve"
   width="682.66669"
   height="682.66669"
   viewBox="0 0 682.66669 682.66669"
   xmlns="http://www.w3.org/2000/svg"
   xmlns:svg="http://www.w3.org/2000/svg"><defs
     id="defs1345"><clipPath
       clipPathUnits="userSpaceOnUse"
       id="clipPath1355"><path
         d="M 0,512 H 512 V 0 H 0 Z"
         id="path1353" /></clipPath></defs><g
     id="g1347"
     transform="matrix(1.3333333,0,0,-1.3333333,0,682.66667)"><g
       id="g1349"><g
         id="g1351"
         clip-path="url(#clipPath1355)"><g
           id="g1357"
           transform="translate(105.8745,489.0205)"><path
             d="m 0,0 c 17.423,11.628 37.876,16.915 60.613,9.67 66.401,-21.158 64.484,-46.231 57.053,-76.637 -10.158,-38.124 -32.416,-62.909 -90.706,-56.678 -5.746,-68.516 24.624,-115.569 15.596,-184.085 70.414,93.665 165.896,58.381 203.218,10.238 m -30.763,27.765 c 25.731,44.822 67.903,59.983 103.738,49.866 94.594,-26.707 134.844,-209.476 -71.815,-237.284 -107.434,-49.115 -159.711,-2.11 -236.39,11.556 -103.723,14.954 -71.885,31.992 -93.57,82.549 -36.115,84.201 14.774,229.487 20.52,264.984 1.156,7.146 4.032,16.679 8.449,27.163"
             style="fill:none;stroke:#000000;stroke-width:20;stroke-linecap:round;stroke-linejoin:round;stroke-miterlimit:22.926;stroke-dasharray:none;stroke-opacity:1"
             id="path1359" /></g><g
           id="g1361"
           transform="translate(132.835,365.3755)"><path
             d="M 0,0 C -11.943,1.559 -20.801,5.572 -26.547,12.031"
             style="fill:none;stroke:#000000;stroke-width:20;stroke-linecap:round;stroke-linejoin:round;stroke-miterlimit:22.926;stroke-dasharray:none;stroke-opacity:1"
             id="path1363" /></g><g
           id="g1365"
           transform="translate(312.3662,122.0649)"><path
             d="M 0,0 C 0,0 -50.377,-23.256 -109.838,4.153"
             style="fill:none;stroke:#000000;stroke-width:20;stroke-linecap:round;stroke-linejoin:round;stroke-miterlimit:22.926;stroke-dasharray:none;stroke-opacity:1"
             id="path1367" /></g><g
           id="g1369"
           transform="translate(73.9312,457.3232)"><path
             d="M 0,0 H 0.007"
             style="fill:none;stroke:#000000;stroke-width:20;stroke-linecap:round;stroke-linejoin:round;stroke-miterlimit:2.613;stroke-dasharray:none;stroke-opacity:1"
             id="path1371" /></g></g></g></g></svg>
