<svg id="b308ff6f-16ec-42f5-868a-b0375e9d5e62" height="512" viewBox="0 0 64 64" width="512" xmlns="http://www.w3.org/2000/svg" data-name="line"><path d="m49.75916 17.34308a6.30279 6.30279 0 0 0 6.296-6.296c-.29516-8.33308-12.29808-8.33095-12.59209.00004a6.30279 6.30279 0 0 0 6.29609 6.29596zm0-10.59082a4.29494 4.29494 0 0 1 -.00007 8.58954 4.29494 4.29494 0 0 1 .00007-8.58954z"/><path d="m56.07379 26.99683h-4.85279a1.24805 1.24805 0 0 1 -.89313-.36548l-2.856-2.78705a5.11684 5.11684 0 0 0 -2.02807-5.11072l-3.6048-2.06183a5.436 5.436 0 0 0 -2.61011-.71136l-9.54376-.15051a5.12766 5.12766 0 0 0 -3.53455 1.36126l-6.37475 5.97357a3.74518 3.74518 0 0 0 -1.19019 2.69019 3.8051 3.8051 0 0 0 6.44611 2.72919l3.9317-3.94184a1.85252 1.85252 0 0 1 1.41693-.53747l2.7713.12994-3.18855 4.57628a7.46574 7.46574 0 0 0 -1.29022 6.07972l-3.307 4.05572a1.19423 1.19423 0 0 1 -.93274.44855h-7.755a4.1229 4.1229 0 0 0 .00012 8.2456h6.50409a1.00076 1.00076 0 0 0 0-2.00134h-6.50422a2.12151 2.12151 0 1 1 0-4.243h7.755a3.18431 3.18431 0 0 0 2.48646-1.18825l2.72882-3.34723a17.537 17.537 0 0 0 3.14618 3.18451l-3.88349 5.11609c-.36535.55938-1.149.484-1.72619.47778a1.00082 1.00082 0 0 0 .00006 2.0014 3.6093 3.6093 0 0 0 3.31848-1.2666l3.78857-4.99078 2.45276 2.19122a2.57144 2.57144 0 0 1 .85706 1.91437v9.47681a4.27281 4.27281 0 1 0 8.54553-.03711l-.0498-7.32508a1.0007 1.0007 0 0 0 -2.00135.01368l.04987 7.32312a2.27168 2.27168 0 0 1 -4.543.02526v-9.47669a4.5752 4.5752 0 0 0 -1.52539-3.40747l-4.1619-3.71628a11.47219 11.47219 0 0 1 -3.20715-3.57068 4.36378 4.36378 0 0 1 -.23206-1.29571 5.94276 5.94276 0 0 1 1.1316-3.54822l4.003-5.74591a1.19618 1.19618 0 0 0 -.89411-1.89966l-4.24054-.19934a3.8749 3.8749 0 0 0 -2.92913 1.1228l-3.92493 3.93512a1.77372 1.77372 0 1 1 -2.4776-2.53882l6.36786-5.96765a3.13411 3.13411 0 0 1 2.13806-.82574l9.54968.15051c1.25714-.11023 3.79975 1.78186 5.17133 2.46539a3.00293 3.00293 0 0 1 1.07689 3.26391l-5.88573 8.84263a3.1408 3.1408 0 0 0 .40753 3.98108l3.60779 3.56775a1.58254 1.58254 0 0 1 .4671 1.113l.02051 2.401a1.00079 1.00079 0 0 0 2.00128-.01764c-.03967-1.57447.26172-3.746-1.07788-4.91523l-3.61261-3.57263a1.139 1.139 0 0 1 -.15051-1.44433l1.783-2.6789 3.26715 3.07764a3.29675 3.29675 0 0 0 2.24261.88727h3.46222a1.00075 1.00075 0 0 0 -.00006-2.00128h-3.46213a1.31178 1.31178 0 0 1 -.87555-.3479l-3.50976-3.30512 2.37878-3.5741 2.40918 2.35089a3.22685 3.22685 0 0 0 2.29932.943h4.85278a1.96747 1.96747 0 1 1 -.0899 3.93316 1.00177 1.00177 0 0 0 .09 2.00129 3.96809 3.96809 0 0 0 -.00006-7.93575z"/><path d="m8.76288 7.26917h1.30353a1.00065 1.00065 0 1 0 0-2.00129h-1.30353a1.00075 1.00075 0 0 0 0 2.00129z"/><path d="m14.93677 7.491h7.5249a1.00074 1.00074 0 0 0 -.00006-2.00128h-7.52484a1.00074 1.00074 0 0 0 0 2.00128z"/><path d="m17.39587 11.24152a1.00074 1.00074 0 0 0 .00007 2.00128h1.303a1.00064 1.00064 0 1 0 0-2.00128z"/><path d="m5.00067 13.4646h7.52433a1.00074 1.00074 0 0 0 -.00006-2.00128h-7.52427a1.00074 1.00074 0 0 0 0 2.00128z"/><path d="m6.3042 56.69183h-1.30353a1.00065 1.00065 0 1 0 0 2.00129h1.30353a1.00075 1.00075 0 0 0 0-2.00129z"/><path d="m18.699 56.47h-7.52444a1.00074 1.00074 0 0 0 .00006 2.00128h7.52438a1.00074 1.00074 0 0 0 0-2.00128z"/><path d="m22.46167 50.71826h-1.30359a1.00064 1.00064 0 1 0 0 2.00128h1.30359a1.00074 1.00074 0 0 0 0-2.00128z"/><path d="m17.28839 51.49609a1.00041 1.00041 0 0 0 -1.00067-1.00067h-7.52484a1.00064 1.00064 0 1 0 0 2.00128h7.52484a1.00036 1.00036 0 0 0 1.00067-1.00061z"/></svg>